<?xml version="1.0" standalone="no"?>
<!DOCTYPE svg PUBLIC "-//W3C//DTD SVG 20010904//EN"
 "http://www.w3.org/TR/2001/REC-SVG-20010904/DTD/svg10.dtd">
<svg version="1.0" xmlns="http://www.w3.org/2000/svg"
 width="663.000000pt" height="768.000000pt" viewBox="0 0 663.000000 768.000000"
 preserveAspectRatio="xMidYMid meet">

<g transform="translate(0.000000,768.000000) scale(0.100000,-0.100000)"
fill="#000000" stroke="none">
<path d="M3500 6583 c-130 -8 -403 -52 -518 -83 -170 -47 -212 -61 -207 -70 3
-6 -1 -7 -9 -4 -30 12 -423 -166 -411 -186 4 -6 -1 -7 -11 -3 -12 4 -15 3 -10
-5 5 -8 1 -10 -10 -5 -13 5 -15 3 -9 -7 5 -8 4 -11 -3 -6 -21 13 -178 -91
-362 -239 -571 -460 -935 -1121 -1015 -1845 -19 -172 -19 -450 0 -610 50 -428
213 -865 457 -1230 321 -477 801 -854 1348 -1058 363 -135 810 -195 1175 -158
220 23 326 42 495 88 345 95 640 239 925 453 111 83 309 257 354 311 14 16 57
65 96 109 321 363 550 853 636 1359 26 155 37 522 20 687 -56 548 -261 1055
-600 1479 -401 504 -1033 878 -1661 984 -229 39 -464 53 -680 39z m302 -259
c2 -25 0 -51 -4 -57 -6 -9 -8 -9 -8 1 0 7 -13 12 -30 12 -16 0 -30 2 -30 5 0
11 53 85 60 85 5 0 10 -21 12 -46z m-354 -34 l-1 -45 -4 43 c-3 33 -8 42 -19
38 -17 -7 -18 6 -2 22 18 18 28 -5 26 -58z m446 64 c41 -16 5 -105 -42 -103
-27 1 -27 1 -3 8 32 9 38 27 11 34 -13 3 -20 13 -20 29 0 37 17 46 54 32z
m-505 -94 c1 -11 -10 -17 -34 -18 -29 -2 -35 1 -41 23 -7 29 10 56 35 54 14
-1 14 -2 -1 -6 -36 -9 -31 -66 5 -61 19 3 21 9 20 53 l-2 50 9 -40 c5 -22 9
-47 9 -55z m315 74 c3 -9 5 -37 5 -62 -1 -26 -3 -39 -6 -29 -3 12 -10 16 -20
13 -23 -9 -43 12 -43 46 0 20 6 31 23 38 31 12 34 12 41 -6z m-94 -2 c0 -5 -7
-17 -15 -28 -19 -25 -19 -32 3 -37 10 -3 5 -5 -11 -6 l-29 -1 20 34 21 35 -27
4 c-24 4 -24 4 6 6 17 0 32 -3 32 -7z m428 -40 c6 -43 -41 -70 -67 -38 -8 10
-8 21 -1 40 8 22 15 27 38 24 19 -2 28 -9 30 -26z m-749 -19 c6 -20 8 -39 6
-41 -5 -5 -12 13 -17 43 -2 11 -11 21 -21 23 -14 3 -17 -4 -18 -40 l-1 -43 -9
39 c-7 29 -6 42 3 48 28 17 47 8 57 -29z m839 10 c2 -12 -1 -30 -7 -40 -8 -14
-9 -9 -4 20 5 33 3 37 -16 37 -14 0 -22 -8 -27 -27 -10 -45 -12 -50 -13 -21
-2 44 9 59 38 56 18 -2 27 -10 29 -25z m-611 11 c-3 -3 -12 -4 -19 -1 -8 3 -5
6 6 6 11 1 17 -2 13 -5z m650 -39 c-6 -19 -12 -33 -14 -31 -8 7 9 76 17 71 5
-3 3 -21 -3 -40z m-1064 22 c7 4 6 0 -1 -10 -12 -14 -11 -21 1 -46 11 -21 11
-28 2 -25 -15 6 -37 73 -28 88 4 6 8 6 11 -2 2 -7 9 -9 15 -5z m95 -9 c3 -13
-3 -18 -22 -18 -17 0 -26 -5 -26 -16 0 -12 7 -15 25 -12 13 3 22 1 19 -3 -15
-24 -64 0 -64 31 0 39 61 54 68 18z m1071 3 c8 -5 11 -16 7 -26 -5 -13 -13
-15 -34 -10 -34 8 -36 11 -29 30 7 17 34 20 56 6z m-1219 -37 c6 -14 10 -33 9
-42 0 -9 -6 -2 -12 16 -7 18 -19 37 -27 42 -13 8 -12 10 3 10 10 0 22 -11 27
-26z m890 16 c0 -5 -4 -10 -10 -10 -5 0 -10 5 -10 10 0 6 5 10 10 10 6 0 10
-4 10 -10z m414 4 c9 -3 16 -12 16 -19 0 -20 -20 -69 -26 -63 -2 3 0 18 6 33
6 16 7 32 2 37 -14 14 -40 -2 -47 -30 -4 -15 -9 -22 -12 -16 -2 6 1 23 6 37
10 27 25 32 55 21z m-1346 -69 c0 -16 -2 -15 -8 5 -4 14 -8 34 -8 45 0 16 2
15 8 -5 4 -14 8 -34 8 -45z m1458 48 c-13 -62 -20 -84 -27 -89 -12 -7 -11 6 2
47 6 19 12 40 15 47 5 19 14 14 10 -5z m-31 -3 c3 -6 -1 -7 -9 -4 -10 4 -20
-3 -28 -21 -11 -24 -10 -29 7 -42 20 -15 20 -15 0 -11 -23 4 -31 38 -15 67 11
22 35 28 45 11z m-1465 -25 c12 -31 4 -52 -21 -60 -25 -8 -49 11 -49 39 0 47
54 63 70 21z m1274 5 c10 0 17 -3 13 -6 -10 -10 -57 5 -57 18 0 9 3 9 12 0 7
-7 21 -12 32 -12z m-1436 -20 c4 0 7 -19 8 -43 l1 -42 -10 33 c-6 18 -17 32
-26 33 -10 0 -12 2 -3 6 6 2 13 14 13 26 1 17 2 18 6 5 2 -10 8 -18 11 -18z
m63 2 c-5 -9 -7 -31 -5 -47 4 -29 4 -29 -10 5 -18 43 -19 53 -6 45 6 -3 10 -1
10 4 0 6 5 11 10 11 7 0 7 -6 1 -18z m1677 -17 c4 -20 3 -20 -11 -1 -10 14
-20 17 -33 11 -17 -7 -17 -8 6 -15 24 -8 24 -8 3 -9 -13 -1 -23 -6 -23 -11 0
-6 10 -15 23 -20 16 -6 17 -9 5 -9 -15 -1 -48 23 -48 35 0 3 5 14 11 25 14 27
62 22 67 -6z m23 -42 c-11 -21 -20 -32 -21 -25 0 17 30 75 36 69 3 -3 -4 -22
-15 -44z m-1866 -71 c-3 -4 -15 4 -25 18 l-20 25 0 -32 c0 -45 -16 -50 -40
-11 -26 44 -26 62 1 21 27 -42 33 -42 26 2 -7 41 -2 43 30 13 l23 -22 -5 35
c-5 34 -5 34 6 -4 6 -21 8 -41 4 -45z m60 68 c-3 -5 -12 -10 -18 -10 -7 0 -6
4 3 10 19 12 23 12 15 0z m1936 0 c10 -6 19 -16 19 -22 0 -6 -9 -3 -21 8 -20
18 -21 18 -35 -1 -16 -22 -17 -25 -4 -45 8 -13 13 -13 32 -1 22 13 22 13 5 -5
-35 -37 -75 19 -41 57 20 22 20 22 45 9z m-742 -26 c449 -52 901 -253 1240
-552 284 -251 495 -554 630 -909 108 -282 144 -484 145 -808 1 -249 -13 -359
-70 -585 -109 -426 -363 -844 -685 -1128 -386 -340 -833 -535 -1334 -582 -568
-52 -1161 128 -1627 496 -392 309 -679 753 -798 1234 -55 222 -64 297 -64 545
0 266 10 366 58 560 102 411 296 758 597 1065 350 357 842 600 1343 665 142
18 406 18 565 -1z m661 -4 c0 -5 -4 -10 -10 -10 -5 0 -10 5 -10 10 0 6 5 10
10 10 6 0 10 -4 10 -10z m175 -10 c4 -6 4 -24 0 -40 -5 -23 -12 -30 -30 -30
-34 0 -51 25 -37 55 12 26 55 35 67 15z m-2199 -36 c9 -35 -2 -56 -28 -52 -33
4 -49 55 -24 73 23 18 45 9 52 -21z m-72 -64 c4 -14 -4 -5 -18 20 -14 25 -25
50 -25 55 -1 16 36 -48 43 -75z m-58 26 c0 -11 4 -34 8 -51 6 -25 4 -24 -10 8
-13 30 -19 35 -30 26 -9 -8 -14 -8 -14 -1 0 6 5 14 10 17 6 3 10 15 10 26 0
28 25 4 26 -25z m2403 30 c10 -11 9 -21 -4 -45 -8 -17 -18 -31 -21 -31 -2 0 3
14 11 30 9 17 13 35 10 40 -12 19 -33 10 -45 -20 -7 -17 -15 -28 -18 -26 -2 3
1 19 8 36 13 32 40 39 59 16z m47 -31 c6 -15 -15 -80 -23 -72 -2 3 2 16 8 30
9 21 9 30 -1 42 -9 11 -9 15 -1 15 6 0 14 -7 17 -15z m-2509 -59 c11 -4 27
-13 33 -21 16 -20 5 -19 -25 1 -27 18 -31 13 -15 -17 6 -10 7 -19 2 -19 -8 0
-52 83 -52 98 0 4 8 -3 18 -14 9 -12 27 -25 39 -28z m2633 -21 c0 -8 -4 -15
-10 -15 -5 0 -9 6 -7 13 1 6 -7 12 -18 12 -31 0 -27 -47 5 -56 23 -6 23 -7 3
-8 -34 -2 -56 26 -41 52 6 12 16 25 21 29 15 9 47 -10 47 -27z m-2715 2 c-3
-6 5 -17 17 -22 30 -14 33 -31 9 -45 -14 -7 -21 -7 -21 0 0 5 7 10 15 10 26 0
16 18 -15 29 -29 10 -37 21 -23 34 11 12 23 8 18 -6z m2740 -47 c-13 -24 -14
-35 -5 -44 8 -8 18 -4 36 18 31 35 42 29 13 -7 -23 -31 -41 -34 -59 -12 -11
13 -10 22 4 52 9 19 19 33 22 30 3 -3 -2 -20 -11 -37z m-2770 -17 c19 -28 11
-55 -17 -61 -21 -4 -60 62 -45 77 19 19 44 12 62 -16z m2844 -42 c-12 -17 -25
-29 -27 -26 -2 2 6 18 18 35 12 17 24 29 27 26 3 -2 -5 -18 -18 -35z m-2929
14 c0 -1 -9 -5 -19 -8 -13 -3 -18 -1 -14 9 4 10 33 10 33 -1z m3006 -21 c19
-15 19 -15 -2 -9 -15 4 -24 -1 -34 -20 -7 -14 -17 -25 -22 -25 -5 0 0 13 11
29 11 15 18 31 14 35 -13 13 14 5 33 -10z m-2987 -32 c-12 -5 -39 17 -39 30 0
5 11 1 24 -9 13 -10 20 -20 15 -21z m3047 -20 c1 -7 0 -8 -3 -2 -7 15 -39 12
-53 -5 -10 -13 -10 -19 5 -35 11 -12 13 -20 6 -20 -6 0 -17 12 -23 26 -11 23
-10 28 7 40 23 17 57 15 61 -4z m-3 -25 c4 3 7 1 7 -5 0 -14 -2 -14 -24 -6 -9
3 -16 11 -16 16 0 7 5 6 13 -1 8 -6 17 -8 20 -4z m22 -37 c-16 -16 -31 -27
-34 -24 -5 4 48 53 58 54 3 0 -8 -13 -24 -30z m55 -4 c0 -7 -12 -23 -27 -37
l-28 -24 24 27 c14 16 21 33 17 43 -3 9 -2 13 4 10 6 -3 10 -12 10 -19z m43
-40 c4 -10 1 -13 -9 -9 -7 3 -14 1 -14 -4 0 -5 -7 -18 -15 -29 -12 -15 -12
-11 2 19 18 40 28 46 36 23z m67 -99 c-24 -23 -35 -31 -25 -17 38 49 58 70 64
65 3 -3 -15 -25 -39 -48z m93 -19 c16 -25 -9 -48 -51 -48 l-35 0 19 -22 c16
-20 15 -19 -9 2 l-29 25 44 3 c23 2 47 7 52 12 13 13 -12 40 -31 33 -11 -4
-14 -3 -9 6 10 16 36 10 49 -11z m67 -63 c0 -3 -10 -9 -22 -14 -13 -5 -41 -17
-63 -26 -54 -23 -38 -8 22 20 50 25 63 28 63 20z m30 -50 c14 -17 7 -45 -12
-44 -10 0 -10 2 0 6 6 2 12 11 12 18 0 15 -27 28 -41 19 -5 -3 -9 0 -9 5 0 16
36 13 50 -4z m-50 -45 c20 -6 21 -8 5 -8 -11 0 -29 3 -40 8 -25 11 1 11 35 0z
m101 -20 c42 -23 7 -93 -44 -88 -42 4 -48 38 -13 73 28 28 30 29 57 15z m-110
-17 c13 -16 12 -17 -3 -4 -10 7 -18 15 -18 17 0 8 8 3 21 -13z m-3871 -23 c14
-11 21 -20 16 -20 -5 0 -18 8 -28 17 -14 13 -21 14 -30 5 -9 -9 -6 -18 12 -37
25 -27 21 -32 -10 -13 -30 19 -36 1 -10 -27 31 -33 13 -32 -24 1 -29 26 -30
26 -9 43 11 9 23 24 26 34 8 22 26 21 57 -3z m4044 -42 c11 -16 12 -26 5 -41
-9 -16 -18 -18 -51 -14 -36 5 -38 4 -25 -11 8 -10 18 -23 22 -31 14 -25 -13
-2 -36 30 l-22 31 52 -7 c48 -6 51 -5 51 14 0 12 -7 24 -15 27 -8 4 -15 10
-15 15 0 16 19 9 34 -13z m-4129 -60 c28 -13 33 -39 10 -58 -35 -29 -85 26
-53 58 15 15 12 15 43 0z m4195 -43 c0 -7 -4 -16 -9 -19 -5 -3 -8 2 -7 11 2
24 -32 28 -55 7 -33 -30 -16 -70 18 -42 14 11 16 11 11 -2 -6 -21 -42 -24 -58
-6 -26 33 43 95 83 74 9 -5 17 -15 17 -23z m-40 -9 c0 -3 -4 -8 -10 -11 -5 -3
-10 -1 -10 4 0 6 5 11 10 11 6 0 10 -2 10 -4z m-4238 -28 c-18 -18 -15 -27 21
-48 17 -11 28 -20 24 -20 -15 0 -67 34 -67 43 0 15 22 49 28 43 3 -4 0 -12 -6
-18z m4309 -75 c13 -16 12 -17 -4 -4 -16 12 -20 12 -33 -1 -13 -12 -14 -20 -5
-37 7 -11 9 -21 7 -21 -3 0 -10 9 -16 21 -9 16 -8 25 6 40 21 23 28 24 45 2z
m-4368 -23 c-3 -11 -1 -20 3 -20 5 0 20 -10 34 -21 l25 -20 -32 15 c-37 18
-47 31 -39 51 8 22 15 18 9 -5z m67 -10 c0 -5 -2 -10 -4 -10 -3 0 -8 5 -11 10
-3 6 -1 10 4 10 6 0 11 -4 11 -10z m4350 -27 c-1 -20 -50 -85 -50 -66 0 6 4
15 10 18 5 3 15 15 20 26 14 26 -4 25 -30 -1 -11 -11 -20 -16 -20 -11 0 11 48
51 61 51 5 0 9 -8 9 -17z m-4414 -20 c-4 -4 -15 -8 -24 -8 -9 0 -17 -7 -17
-15 0 -10 10 -15 33 -15 17 0 32 -3 32 -7 0 -14 -50 -20 -65 -8 -18 15 -20 46
-2 53 19 8 51 8 43 0z m-60 -78 c10 -8 30 -15 43 -15 23 0 24 -1 6 -13 -16
-12 -21 -11 -38 6 -14 14 -22 16 -30 7 -14 -14 15 -39 47 -41 15 -1 16 -3 5
-6 -27 -7 -71 15 -67 34 1 10 -1 24 -5 31 -11 17 15 16 39 -3z m4524 -8 c0
-14 -30 -47 -43 -47 -5 0 -5 6 2 13 6 8 8 17 5 20 -4 3 -4 13 -1 21 7 17 37
11 37 -7z m-65 -17 c3 -5 1 -10 -4 -10 -6 0 -11 5 -11 10 0 6 2 10 4 10 3 0 8
-4 11 -10z m93 -31 c-9 -5 -16 -15 -14 -22 1 -6 1 -9 -1 -4 -7 12 -25 8 -45
-10 -10 -9 -18 -11 -18 -5 0 6 17 20 38 31 37 20 72 29 40 10z m-4558 -34 c30
-17 22 -19 -16 -5 -21 8 -29 8 -36 -2 -6 -10 -8 -8 -8 5 0 21 25 22 60 2z
m-30 -45 c19 -11 32 -19 29 -20 -11 0 -79 30 -79 35 0 9 14 5 50 -15z m4625
-20 c7 -22 -1 -40 -17 -40 -6 0 -20 -7 -30 -17 -10 -9 -18 -11 -18 -5 0 6 14
16 30 24 32 14 37 44 7 42 -9 -1 -14 2 -11 7 9 16 32 10 39 -11z m-78 -7 c-4
-3 -1 -13 6 -22 11 -14 10 -14 -5 -2 -16 12 -16 31 -1 31 4 0 3 -3 0 -7z
m-4574 -36 c-2 -33 9 -35 31 -4 l16 22 -9 -25 c-10 -32 -41 -37 -71 -12 -21
17 -23 22 -11 36 21 25 46 15 44 -17z m4687 -29 c-14 -6 -37 -17 -52 -24 -16
-7 -28 -9 -28 -4 0 5 19 15 43 23 49 18 74 21 37 5z m-4705 -50 c18 -17 18
-17 -13 -6 -21 8 -32 19 -32 32 0 17 2 18 13 5 6 -8 21 -22 32 -31z m4715 -13
c7 -9 11 -17 8 -20 -2 -2 -12 4 -21 15 -9 11 -13 20 -8 20 5 0 14 -7 21 -15z
m-64 -3 c-2 -4 0 -14 5 -22 8 -13 12 -12 24 4 16 21 19 18 9 -8 -8 -20 -28
-21 -44 -1 -10 13 -7 35 6 35 3 0 3 -4 0 -8z m-4651 -23 c15 -7 11 -8 -17 -4
-41 6 -63 -12 -34 -29 44 -27 49 -36 12 -21 -48 19 -45 15 -35 43 9 24 38 28
74 11z m-33 -88 c4 -3 -7 -6 -25 -6 -38 0 -44 -23 -10 -36 16 -6 27 -3 38 7 8
9 15 11 15 5 0 -20 -37 -32 -64 -19 -29 12 -31 20 -15 49 10 19 40 19 61 0z
m4829 -78 c13 -15 12 -15 -10 -4 -12 7 -32 11 -42 8 -10 -3 -17 -1 -13 4 9 15
51 10 65 -8z m-4836 -13 c-3 -5 -11 -10 -16 -10 -6 0 -7 5 -4 10 3 6 11 10 16
10 6 0 7 -4 4 -10z m4774 -48 c14 -12 14 -13 -4 -10 -14 2 -21 12 -22 33 -1
18 1 22 4 10 3 -11 13 -25 22 -33z m-4811 18 c17 -11 32 -22 32 -26 0 -16 -22
-44 -31 -38 -6 3 -3 11 7 18 19 15 13 31 -15 39 -14 3 -17 0 -14 -12 7 -26
-21 -45 -46 -31 -26 13 -27 45 -3 59 24 15 33 13 70 -9z m4882 -9 c-6 -12 -15
-21 -21 -21 -6 0 -3 7 5 16 9 8 16 20 16 26 0 6 3 9 6 6 3 -4 1 -16 -6 -27z
m-32 -54 c-39 -11 -53 -41 -23 -50 11 -4 10 -4 -2 -3 -12 1 -19 11 -21 28 -3
22 1 27 25 31 50 7 59 5 21 -6z m-4838 -36 c0 -6 -6 -8 -14 -5 -10 4 -16 -3
-19 -23 -4 -26 -5 -27 -12 -6 -8 23 -35 40 -35 21 0 -6 8 -21 17 -32 10 -12 3
-8 -15 8 -17 17 -32 33 -32 36 0 4 25 8 55 9 32 1 55 -2 55 -8z m4867 -7 c-3
-3 -12 -4 -19 -1 -8 3 -5 6 6 6 11 1 17 -2 13 -5z m14 -51 c12 -16 12 -17 -1
-6 -8 6 -26 13 -40 16 l-25 4 26 2 c15 0 33 -7 40 -16z m-4881 -33 c12 -8 10
-10 -8 -10 -18 0 -23 -5 -20 -22 2 -15 -3 -24 -15 -26 -30 -6 -67 7 -67 23 0
19 16 19 24 0 3 -8 15 -15 26 -15 15 0 20 7 20 24 0 21 -5 25 -37 29 -33 3
-31 4 12 5 28 1 57 -3 65 -8z m4880 -4 c0 -2 3 -13 7 -23 6 -17 5 -17 -13 -1
-10 9 -30 18 -44 21 -18 3 -15 5 13 6 20 0 37 -1 37 -3z m1 -56 c21 -12 25
-40 7 -58 -15 -15 -38 3 -38 29 0 11 -5 19 -11 19 -7 0 -9 -10 -7 -25 3 -13 1
-22 -3 -19 -13 8 -11 38 3 52 15 15 24 15 49 2z m-4951 -41 c9 -15 15 -18 24
-10 10 9 12 6 8 -14 l-4 -25 -20 25 c-24 31 -38 32 -39 3 -1 -22 -1 -22 -8 2
-5 14 -6 28 -4 33 8 14 32 7 43 -14z m4970 -54 c18 -21 -14 -55 -49 -54 l-26
2 25 4 c60 11 66 43 8 44 -37 1 -39 2 -18 9 38 12 46 11 60 -5z m-4950 -95 c0
-5 -16 -10 -35 -10 -19 0 -35 -4 -35 -10 0 -5 -5 -10 -11 -10 -5 0 -7 5 -3 11
3 6 0 15 -7 20 -9 6 5 9 39 9 28 0 52 -4 52 -10z m4960 -49 c0 -9 -4 -22 -9
-30 -8 -12 -12 -12 -25 -2 -9 8 -16 20 -16 28 0 8 -5 11 -10 8 -6 -4 -8 -16
-5 -28 5 -19 4 -19 -9 3 -12 22 -12 26 0 33 8 4 18 6 23 2 5 -3 12 -1 16 4 9
15 35 1 35 -18z m-4951 -30 c0 -10 -2 -11 -6 -3 -2 6 -20 12 -40 12 -27 0 -34
-4 -31 -17 2 -13 13 -18 35 -18 17 0 29 -3 26 -7 -2 -5 -17 -8 -33 -8 -22 0
-30 6 -38 29 -12 34 -2 39 56 33 22 -3 32 -9 31 -21z m4947 -66 c1 -30 0 -30
-40 -26 l-41 4 38 10 c45 11 44 29 -4 39 -34 6 -34 6 6 5 37 -2 40 -4 41 -32z
m-4972 -14 c-17 -4 -36 -11 -42 -15 -7 -4 -12 -3 -12 2 0 16 13 22 49 21 l36
-1 -31 -7z m-18 -53 c-16 -9 -36 -3 -36 11 0 5 12 6 26 3 22 -4 24 -6 10 -14z
m4982 2 c-10 -6 -25 -7 -40 -1 -20 9 -18 10 17 10 31 0 36 -2 23 -9z m-4984
-36 c9 -3 16 -14 15 -23 0 -10 -2 -11 -6 -3 -2 6 -11 12 -20 12 -26 0 -7 -25
22 -28 24 -3 27 -1 22 17 -3 12 -1 21 4 21 5 0 9 -9 9 -20 0 -26 -46 -46 -66
-29 -15 12 -19 41 -7 52 8 8 8 8 27 1z m5009 -54 c5 -18 2 -19 -36 -14 -55 9
-60 14 -13 14 30 0 37 3 32 16 -3 8 -2 13 3 10 5 -3 11 -15 14 -26z m-4963
-39 c-25 -15 -100 -24 -100 -12 0 5 19 12 43 14 23 2 49 4 57 5 13 1 13 0 0
-7z m4936 -61 c25 0 34 24 12 33 -10 4 -10 6 0 6 18 1 26 -27 13 -43 -16 -19
-47 -9 -71 22 l-20 25 -1 -24 c0 -13 -3 -18 -6 -11 -3 7 -2 20 2 30 6 15 9 13
27 -10 12 -17 29 -28 44 -28z m-4930 13 c-4 -4 -21 -12 -37 -18 -45 -15 -40
-29 11 -36 l45 -7 -49 2 c-27 0 -51 6 -53 11 -5 19 14 37 48 45 19 4 36 8 38
9 2 1 1 -2 -3 -6z m4906 -74 c25 -18 32 -19 39 -8 6 10 9 8 9 -9 l0 -24 -37
23 c-44 26 -60 39 -49 39 4 0 21 -10 38 -21z m-4901 -26 c11 -15 11 -16 -1 -5
-29 25 -65 8 -52 -25 2 -7 14 -13 26 -13 12 0 28 6 36 13 12 10 12 9 0 -6 -16
-22 -59 -19 -73 5 -23 36 37 66 64 31z m4878 -49 c14 -12 -19 -1 -35 12 -18
14 -18 14 6 3 14 -6 27 -13 29 -15z m47 -20 c18 -14 18 -14 -6 -3 -31 14 -36
19 -24 19 6 0 19 -7 30 -16z m-4905 -23 c7 11 9 10 9 -4 0 -15 -7 -17 -37 -15
-41 3 -68 19 -51 29 6 4 24 0 40 -9 26 -12 32 -12 39 -1z m4834 -21 c8 -24 41
-44 57 -34 7 4 8 3 4 -4 -12 -19 -26 -14 -57 19 -26 28 -29 29 -29 10 0 -12
-4 -21 -10 -21 -13 0 -13 6 0 31 14 25 27 24 35 -1z m56 -7 c13 -16 12 -17 -3
-4 -10 7 -18 15 -18 17 0 8 8 3 21 -13z m-4886 -33 c-47 -17 -72 -19 -72 -7 0
7 17 12 46 13 28 1 38 -2 26 -6z m4856 -40 c22 -12 25 -43 5 -59 -18 -15 -59
-5 -82 20 -32 36 26 66 77 39z m-4861 -54 c0 -26 -6 -18 -14 19 -5 22 -4 26 4
15 5 -8 10 -24 10 -34z m4824 -86 c21 0 30 19 16 35 -9 11 -9 15 -1 15 21 0
24 -30 6 -50 -22 -24 -41 -13 -62 37 -20 49 -14 54 7 6 11 -24 26 -43 34 -43z
m-4776 59 c-2 -5 -19 -19 -38 -31 l-35 -21 30 30 c31 32 49 41 43 22z m-45 -6
c-7 -2 -19 -2 -25 0 -7 3 -2 5 12 5 14 0 19 -2 13 -5z m4758 -26 c-10 -9 -11
-8 -5 6 3 10 9 15 12 12 3 -3 0 -11 -7 -18z m-4706 -16 c3 -5 -9 -20 -27 -32
l-33 -23 20 24 20 23 -22 -5 c-13 -4 -23 -4 -23 -2 0 5 39 22 52 23 4 1 9 -3
13 -8z m4739 -46 c29 -12 37 -21 34 -38 -2 -12 -11 -22 -21 -23 -12 -1 -13 -1
-2 3 17 5 20 29 6 38 -6 3 -15 -4 -21 -15 -22 -40 -76 -16 -59 28 10 26 15 27
63 7z m-4713 -25 c24 -20 24 -20 4 -35 -43 -34 -97 1 -60 39 21 21 28 20 56
-4z m19 -80 c-8 -5 -19 -10 -25 -10 -5 0 -3 5 5 10 8 5 20 10 25 10 6 0 3 -5
-5 -10z m-58 -22 c-48 -24 -7 -40 58 -24 14 4 5 -3 -19 -14 -41 -19 -44 -19
-57 -3 -7 10 -14 21 -14 25 0 9 31 28 45 27 6 0 0 -5 -13 -11z m4668 2 c0 -5
-4 -10 -10 -10 -5 0 -10 -7 -10 -17 0 -9 -3 -14 -6 -10 -8 8 5 47 17 47 5 0 9
-4 9 -10z m64 -51 c-10 -11 -21 -19 -25 -19 -11 0 -39 30 -39 42 0 6 8 0 18
-12 22 -28 46 -19 36 13 -6 20 -5 20 10 8 15 -13 15 -15 0 -32z m-4641 -32
c-14 -19 -23 -22 -41 -16 -29 11 -28 17 2 12 17 -4 28 1 37 16 7 11 15 18 17
16 2 -2 -4 -15 -15 -28z m4583 -8 c3 -5 -6 -5 -19 0 -47 18 -52 -21 -6 -44 24
-13 34 -14 45 -4 12 9 12 15 2 28 -12 14 -11 15 5 2 17 -14 17 -15 -1 -33 -18
-18 -20 -19 -55 -2 -37 18 -47 40 -26 61 11 11 46 6 55 -8z m-4581 -34 c-16
-7 -41 -15 -55 -19 -19 -5 -16 -2 10 13 19 11 44 20 55 20 15 -1 13 -4 -10
-14z m55 -35 c0 -5 -7 -7 -15 -4 -10 4 -15 0 -15 -14 0 -27 -23 -45 -38 -30
-17 17 -15 33 3 18 13 -10 15 -9 15 8 0 12 8 25 17 31 19 10 33 6 33 -9z
m4510 -30 c0 -5 -4 -10 -10 -10 -5 0 -10 5 -10 10 0 6 5 10 10 10 6 0 10 -4
10 -10z m-39 -31 c34 -24 37 -44 8 -59 -38 -21 -95 33 -69 65 16 20 26 19 61
-6z m-4435 -17 c1 -7 0 -8 -3 -2 -8 18 -31 11 -52 -16 -25 -31 -28 -19 -5 14
17 24 55 27 60 4z m-2 -34 c-3 -4 -12 -8 -20 -8 -8 0 -14 4 -14 8 0 4 9 8 19
8 11 0 17 -4 15 -8z m0 -59 c-24 -19 -41 -26 -47 -20 -12 12 -2 41 15 41 10 0
10 -2 -1 -9 -7 -5 -11 -15 -9 -22 3 -10 13 -4 34 17 16 16 33 28 37 26 4 -2
-9 -17 -29 -33z m4416 -4 c0 -7 -8 -19 -17 -26 -16 -13 -17 -12 -4 4 12 15 11
21 -10 44 l-24 26 28 -18 c15 -9 27 -23 27 -30z m-47 -7 c-2 -5 -10 -8 -18 -8
-8 0 -16 3 -18 8 -3 4 5 7 18 7 13 0 21 -3 18 -7z m-3681 -736 c-7 -2 -9 -8
-6 -14 3 -5 -3 -16 -15 -24 -12 -8 -21 -22 -21 -31 0 -9 -3 -13 -7 -9 -10 10
39 96 51 89 6 -4 5 -8 -2 -11z m3014 -34 c19 -23 19 -23 -2 -6 -31 27 -48 5
-28 -36 l16 -31 -25 30 c-22 25 -26 27 -32 13 -4 -9 -1 -26 5 -38 6 -12 9 -24
7 -27 -3 -3 -13 10 -22 28 -15 28 -15 33 -3 40 8 5 26 17 39 28 13 11 24 20
25 21 0 0 9 -10 20 -22z m-2956 -43 c0 -14 -2 -25 -4 -25 -2 0 -6 11 -8 25 -3
14 -1 25 3 25 5 0 9 -11 9 -25z m-30 -15 c0 -5 -7 -7 -15 -4 -8 4 -15 1 -15
-4 0 -6 8 -13 18 -15 13 -4 11 -5 -5 -6 -22 -1 -31 18 -16 32 10 10 33 8 33
-3z m65 -24 c0 -15 -4 -21 -9 -16 -5 5 -6 16 -3 24 9 22 12 20 12 -8z m2818
10 c23 -17 22 -53 -2 -65 -14 -8 -22 -6 -33 7 -26 30 -30 43 -18 57 15 18 30
18 53 1z m-2788 -46 c-23 -25 -55 -27 -54 -2 0 10 3 12 6 5 7 -18 24 -16 39 4
9 13 9 22 1 33 -7 9 -4 8 8 -2 18 -17 18 -18 0 -38z m46 23 c-12 -20 -14 -14
-5 12 4 9 9 14 11 11 3 -2 0 -13 -6 -23z m2664 -24 c11 -17 -1 -21 -15 -4 -8
9 -8 15 -2 15 6 0 14 -5 17 -11z m-2655 -17 c-14 -2 -31 -11 -37 -20 -15 -19
-17 -8 -3 17 7 14 17 17 37 12 28 -5 28 -5 3 -9z m55 -21 c-21 -43 -29 -39 -8
4 9 19 18 33 21 31 2 -2 -4 -18 -13 -35z m2590 -23 c4 -7 -3 -2 -14 12 -11 14
-21 32 -21 40 0 13 5 5 35 -52z m-42 2 c10 -16 16 -30 14 -30 -2 0 -13 14 -25
30 -13 17 -19 30 -14 30 4 0 16 -13 25 -30z m-2514 -15 c-12 -19 -23 -35 -25
-35 -6 0 14 40 29 58 18 23 16 12 -4 -23z m2491 -10 c14 -19 14 -19 -2 -6 -16
12 -18 11 -18 -18 0 -17 -4 -31 -8 -31 -12 0 -78 59 -66 60 6 0 19 -9 29 -20
28 -31 37 -24 30 22 -8 44 -3 43 35 -7z m-2420 0 c10 -12 10 -21 2 -40 -7 -14
-16 -25 -22 -25 -7 0 -4 7 4 16 18 18 21 40 6 49 -18 11 -42 -17 -37 -42 2
-12 0 -20 -4 -17 -14 8 -10 41 7 58 19 20 28 20 44 1z m2317 -58 c15 -15 15
-17 1 -12 -16 6 -38 47 -37 68 0 7 5 1 10 -13 6 -13 17 -33 26 -43z m-2281 11
l-7 -42 24 23 c14 12 27 19 29 14 14 -25 15 -43 4 -52 -10 -8 -11 -3 -8 22 l5
32 -27 -24 c-14 -14 -29 -22 -32 -18 -7 7 5 87 13 87 3 0 3 -19 -1 -42z m2184
-37 c15 -30 12 -38 -6 -13 -24 35 -47 29 -40 -10 6 -33 6 -33 -5 -5 -13 33
-26 35 -39 5 -8 -19 -10 -20 -7 -3 2 20 40 45 69 45 10 0 22 -9 28 -19z m-124
-46 c28 -43 -10 -86 -44 -50 -16 16 -16 16 6 4 19 -12 24 -12 32 1 13 20 13
23 -5 46 -15 19 -15 19 -35 -5 -11 -13 -20 -20 -20 -15 0 10 31 44 41 44 5 0
16 -11 25 -25z m-1899 -27 c-3 -8 -6 -5 -6 6 -1 11 2 17 5 13 3 -3 4 -12 1
-19z m59 6 c-9 -8 -16 -23 -17 -32 0 -10 -3 -12 -5 -5 -7 15 13 53 27 53 6 0
3 -7 -5 -16z m1750 4 c4 -7 3 -8 -5 -4 -6 4 -20 2 -29 -6 -15 -12 -16 -11 -3
5 16 20 27 22 37 5z m131 -10 c-3 -8 -6 -5 -6 6 -1 11 2 17 5 13 3 -3 4 -12 1
-19z m-1792 -23 c0 -37 -28 -56 -51 -33 -13 12 -14 20 -5 34 10 17 11 16 8 -6
-1 -19 3 -25 18 -25 24 0 34 43 13 57 -10 8 -10 9 2 5 9 -2 15 -15 15 -32z
m93 -19 c9 -20 8 -25 -4 -30 -11 -4 -14 0 -12 16 5 36 -27 34 -42 -2 -17 -40
-23 -33 -8 8 15 40 50 44 66 8z m46 15 c3 -5 -1 -14 -8 -20 -12 -10 -13 -8 -9
8 6 23 9 25 17 12z m1408 -22 c-4 -30 -5 -30 -16 -7 -10 19 -9 24 3 30 9 4 16
7 17 7 0 1 -1 -13 -4 -30z m121 2 c21 10 21 9 3 -5 -20 -16 -56 -6 -56 15 0 6
7 3 16 -5 12 -12 20 -14 37 -5z m-243 -59 c5 -19 5 -30 -1 -27 -5 4 -9 14 -9
24 0 22 -25 45 -40 36 -14 -9 -13 -38 3 -55 10 -12 9 -12 -6 0 -24 17 -18 52
11 65 12 5 23 14 23 20 1 5 3 1 6 -10 2 -11 8 -35 13 -53z m78 46 c2 -12 -3
-18 -15 -17 -10 0 -13 3 -5 6 15 6 6 23 -14 23 -16 0 -16 -34 1 -60 8 -13 7
-13 -8 -1 -17 14 -23 52 -10 65 13 13 48 1 51 -16z m-1328 -22 c-6 -16 -5 -28
3 -37 7 -8 4 -7 -7 2 -15 14 -16 21 -7 38 16 28 23 27 11 -3z m-48 -11 c3 -14
1 -25 -3 -25 -5 0 -9 11 -9 25 0 14 2 25 4 25 2 0 6 -11 8 -25z m103 5 c-3 -5
-16 -10 -28 -9 -20 1 -20 2 3 9 14 4 26 8 28 9 2 1 0 -3 -3 -9z m32 -14 c-7
-14 -13 -23 -15 -21 -7 6 9 45 18 45 4 0 3 -11 -3 -24z m205 -3 c-2 -12 -6
-23 -7 -23 -1 0 -5 11 -7 23 -3 14 0 24 7 24 7 0 10 -10 7 -24z m856 15 c7 -7
12 -21 11 -32 -1 -18 -2 -17 -8 4 -10 37 -35 31 -41 -10 l-6 -35 -5 37 c-5 36
-2 40 32 47 3 0 10 -4 17 -11z m-977 -25 c-12 -20 -14 -14 -5 12 4 9 9 14 11
11 3 -2 0 -13 -6 -23z m57 -11 c-5 -21 -16 -39 -23 -39 -11 0 -10 5 2 24 8 12
13 30 9 38 -3 9 0 15 8 15 11 0 12 -8 4 -38z m482 13 c13 -16 6 -80 -10 -90
-6 -3 -7 1 -4 9 4 10 1 16 -7 16 -8 0 -6 5 5 13 26 19 17 53 -14 49 -20 -2
-22 0 -10 8 20 13 25 13 40 -5z m365 4 c11 -17 -1 -21 -15 -4 -8 9 -8 15 -2
15 6 0 14 -5 17 -11z m-948 -31 c-3 -7 -5 -2 -5 12 0 14 2 19 5 13 2 -7 2 -19
0 -25z m474 4 c-6 -2 -16 -13 -22 -24 -10 -19 -9 -20 14 -14 29 7 40 -3 26
-24 -6 -10 -9 -11 -9 -2 0 6 -9 12 -19 12 -30 0 -32 14 -8 48 12 17 24 26 26
19 2 -6 -1 -13 -8 -15z m380 13 c-5 -5 -11 -19 -13 -30 -3 -15 -5 -13 -9 10
-4 24 -1 31 12 31 11 0 15 -4 10 -11z m-541 -5 c0 -6 -11 -20 -25 -32 -30 -26
-31 -35 -7 -41 15 -4 15 -5 0 -6 -30 -2 -31 20 -3 49 l27 28 -23 5 c-22 4 -22
4 4 6 15 0 27 -4 27 -9z m394 -6 c20 -19 20 -35 1 -60 -14 -18 -14 -17 -4 8
15 34 -4 66 -27 47 -17 -14 -18 -41 -1 -59 10 -12 9 -12 -5 -1 -20 15 -23 34
-8 62 13 23 24 24 44 3z m92 -17 c1 -25 1 -25 -3 -2 -3 17 -11 25 -24 25 -15
0 -19 -8 -20 -37 -2 -32 -3 -33 -6 -10 -6 41 3 59 29 55 17 -2 23 -10 24 -31z
m112 15 c-25 -5 -22 -21 5 -32 13 -5 16 -9 7 -9 -21 -1 -40 19 -40 40 0 13 6
16 23 11 18 -5 19 -7 5 -10z m-553 -5 c-12 -10 -16 -22 -13 -40 3 -15 1 -24
-3 -21 -23 14 -2 74 25 74 5 0 2 -6 -9 -13z m45 -37 c0 -29 -5 -50 -11 -50 -5
0 -7 5 -4 10 3 6 1 10 -6 10 -9 0 -9 3 0 14 7 8 11 20 10 28 -2 20 0 38 6 38
3 0 5 -22 5 -50z m133 30 c3 -11 1 -18 -4 -14 -5 3 -9 12 -9 20 0 20 7 17 13
-6z m-310 3 c-7 -2 -19 -2 -25 0 -7 3 -2 5 12 5 14 0 19 -2 13 -5z m400 -48
c-3 -9 -8 -14 -10 -11 -3 3 -2 9 2 15 9 16 15 13 8 -4z"/>
<path d="M3762 6319 c-15 -24 -10 -34 13 -26 15 6 22 47 7 47 -4 0 -13 -9 -20
-21z"/>
<path d="M3854 6335 c-4 -9 -2 -21 4 -27 15 -15 44 -1 40 19 -4 23 -36 29 -44
8z"/>
<path d="M3657 6324 c-12 -13 -7 -52 7 -57 18 -7 39 17 34 40 -3 18 -29 29
-41 17z"/>
<path d="M3987 6303 c-4 -3 -7 -17 -7 -30 0 -20 5 -24 23 -21 30 4 39 58 9 58
-10 0 -22 -3 -25 -7z"/>
<path d="M3150 6270 c0 -5 9 -10 20 -10 11 0 20 5 20 10 0 6 -9 10 -20 10 -11
0 -20 -4 -20 -10z"/>
<path d="M4226 6261 c-3 -5 3 -11 14 -14 21 -5 32 1 24 14 -7 12 -31 11 -38 0z"/>
<path d="M2913 6204 c-7 -20 9 -49 28 -49 22 0 18 59 -4 63 -9 2 -20 -4 -24
-14z"/>
<path d="M3425 6040 c-456 -51 -918 -263 -1254 -577 -317 -295 -541 -667 -645
-1073 -197 -769 10 -1552 559 -2119 471 -486 1159 -741 1813 -671 533 57 984
273 1368 655 348 347 553 754 631 1255 26 169 24 491 -5 660 -83 487 -286 886
-621 1221 -203 202 -378 327 -626 444 -200 95 -379 152 -605 191 -111 19 -490
27 -615 14z m-763 -1141 l109 -62 -2 -126 c-2 -98 -6 -129 -18 -142 -23 -22
-96 -65 -87 -50 5 8 3 12 -5 10 -32 -4 -49 2 -49 17 0 8 5 12 10 9 6 -3 10 -3
10 2 0 4 20 7 45 5 l45 -4 0 35 c0 31 -5 37 -40 55 -22 10 -37 22 -33 26 3 3
1 6 -5 6 -6 0 -9 7 -6 15 4 8 1 15 -5 15 -6 0 -11 -6 -12 -12 0 -10 -2 -10 -6
0 -2 6 -11 12 -18 12 -24 0 -13 35 12 37 48 4 53 7 53 26 0 11 2 18 5 15 8 -7
55 35 49 43 -2 4 -42 28 -88 53 l-84 45 -79 -44 c-43 -24 -84 -48 -91 -52 -8
-5 10 -21 58 -48 75 -43 124 -75 83 -56 -12 6 -28 8 -36 5 -8 -3 -34 4 -57 16
-39 20 -87 20 -75 -1 4 -5 1 -9 -4 -9 -6 0 -12 -19 -12 -42 -1 -27 -5 -11 -10
41 -8 68 -7 88 5 99 20 21 199 122 215 122 8 0 63 -28 123 -61z m568 -51 c0
-27 -2 -28 -55 -28 l-55 0 0 -140 0 -140 -30 0 -30 0 0 140 0 140 -50 0 c-49
0 -50 1 -50 31 l0 30 135 -3 135 -3 0 -27z m1018 -1 l3 -27 -76 0 -76 0 3 -42
3 -43 59 3 c61 4 76 -4 76 -40 0 -16 -10 -18 -70 -18 l-69 0 -3 -67 -3 -68
-32 -3 -33 -3 0 165 0 165 83 4 c128 5 132 4 135 -26z m112 -137 l0 -170 -30
0 -30 0 0 163 c0 90 3 167 7 170 3 4 17 7 30 7 l23 0 0 -170z m-530 73 l1 -88
40 48 c34 39 47 47 75 47 42 0 43 -8 3 -46 -54 -51 -54 -56 -3 -131 l47 -68
-32 -3 c-38 -4 -54 7 -83 59 -31 55 -48 51 -48 -11 l0 -50 -35 0 -35 0 0 165
0 165 35 0 35 0 0 -87z m-409 -12 c22 -18 24 -26 24 -123 l0 -103 -25 3 c-14
2 -26 8 -28 13 -2 5 -13 2 -25 -6 -54 -38 -137 -1 -137 60 0 43 32 66 101 73
43 4 49 7 49 28 0 30 -33 41 -65 20 -31 -20 -75 -21 -75 -2 0 8 12 24 26 35
36 28 122 29 155 2z m256 4 c11 -8 23 -24 26 -35 4 -17 0 -20 -23 -20 -15 0
-33 7 -40 16 -18 21 -64 14 -68 -10 -5 -24 10 -32 67 -41 59 -9 71 -19 71 -62
0 -54 -36 -83 -105 -83 -46 0 -60 4 -80 25 -14 13 -25 28 -25 33 0 13 54 23
59 11 5 -16 46 -28 70 -22 15 4 21 12 19 27 -2 16 -13 23 -43 29 -74 16 -90
28 -93 74 -2 33 1 44 20 57 29 20 116 21 145 1z m936 -6 c60 -46 58 -152 -4
-203 -37 -32 -111 -36 -145 -8 -28 22 -54 74 -54 107 0 38 25 90 51 109 34 24
119 21 152 -5z m153 -59 c10 -44 20 -80 24 -80 4 0 14 36 24 80 l17 80 34 0
33 0 23 -86 22 -85 21 83 c21 82 21 83 55 86 25 3 32 0 29 -10 -3 -7 -20 -64
-38 -125 l-33 -113 -32 0 c-32 0 -33 2 -50 68 -27 101 -30 101 -55 13 -23 -80
-23 -81 -56 -81 -31 0 -34 3 -44 43 -14 53 -50 175 -57 193 -4 10 4 14 30 14
l36 0 17 -80z m-2336 -196 c0 -7 -98 45 -104 55 -3 5 19 -4 49 -21 30 -16 55
-31 55 -34z m55 -32 c-3 -3 -11 0 -18 7 -9 10 -8 11 6 5 10 -3 15 -9 12 -12z
m-294 -292 c45 -13 89 -55 89 -86 0 -34 -48 -33 -78 1 -30 34 -84 34 -117 0
-21 -20 -25 -34 -25 -83 0 -48 4 -62 23 -80 30 -28 70 -37 99 -21 50 26 52 59
3 59 -32 0 -35 2 -35 30 l0 31 68 -3 67 -3 0 -51 c-1 -93 -59 -140 -162 -132
-87 7 -143 76 -143 173 0 48 25 108 56 137 18 16 73 35 104 37 8 1 31 -4 51
-9z m1182 -109 l72 -106 3 108 3 107 35 0 34 0 -2 -167 -3 -168 -31 -3 c-29
-3 -35 3 -100 102 -38 58 -72 106 -76 106 -5 0 -8 -47 -8 -105 l0 -105 -35 0
-35 0 0 168 c0 93 2 171 5 174 3 2 19 3 36 0 26 -4 41 -21 102 -111z m444 94
c25 -17 47 -48 58 -82 6 -21 3 -23 -27 -23 -26 0 -39 7 -56 30 -29 39 -81 42
-117 5 -21 -20 -25 -34 -25 -82 0 -32 6 -66 14 -75 31 -42 104 -43 131 -2 20
30 88 36 79 7 -14 -43 -28 -62 -64 -82 -104 -58 -226 8 -238 128 -8 88 36 170
104 191 38 12 111 4 141 -15z m1183 -3 c37 -27 70 -99 70 -152 0 -98 -67 -170
-158 -170 -128 0 -201 138 -139 260 41 83 155 114 227 62z m-2420 -12 l0 -30
-80 0 -80 0 0 -40 0 -40 70 0 70 0 0 -30 0 -30 -70 0 -70 0 0 -40 0 -40 80 0
80 0 0 -30 0 -30 -115 0 -115 0 0 154 c0 85 -3 161 -6 170 -5 14 9 16 115 16
l121 0 0 -30z m286 -3 c34 -40 33 -105 -1 -146 l-26 -30 31 -60 c16 -33 30
-63 30 -66 0 -3 -17 -5 -38 -5 -37 0 -39 2 -70 66 -29 59 -35 65 -60 62 -26
-3 -27 -6 -30 -65 l-3 -63 -34 0 -35 0 0 171 0 171 106 -4 c102 -3 107 -4 130
-31z m314 3 l0 -30 -80 0 -80 0 0 -40 0 -40 76 0 75 0 -3 -27 c-3 -27 -5 -28
-75 -31 l-73 -3 0 -39 0 -40 80 0 80 0 0 -30 0 -31 -117 3 -118 3 -3 168 -2
167 120 0 120 0 0 -30z m820 -140 l0 -170 -35 0 -35 0 0 170 0 170 35 0 35 0
0 -170z m287 75 c69 -190 83 -232 83 -238 0 -4 -18 -7 -40 -7 -37 0 -40 2 -50
40 l-11 40 -63 0 -63 0 -12 -40 c-11 -38 -14 -40 -52 -40 -35 0 -40 3 -34 18
4 9 28 78 55 152 26 74 51 143 55 153 6 14 17 17 54 15 l46 -3 32 -90z m344
72 c65 -43 88 -140 53 -227 -25 -63 -68 -83 -178 -84 l-91 -1 -3 168 -2 167
93 0 c81 0 99 -3 128 -23z m714 -1 c46 -46 45 -132 -1 -162 l-24 -17 35 -64
c19 -35 35 -66 35 -68 0 -3 -17 -5 -38 -5 -37 0 -39 2 -70 66 -29 59 -35 65
-60 62 -26 -3 -27 -5 -27 -63 l0 -60 -35 0 -35 0 -3 168 -2 167 100 0 c93 0
103 -2 125 -24z m-2055 -487 c0 -29 -1 -29 -55 -29 l-55 0 0 -140 0 -140 -35
0 -35 0 0 140 0 140 -50 0 c-50 0 -50 0 -50 33 l0 32 140 -3 140 -3 0 -30z
m472 31 c75 0 81 -2 109 -29 39 -40 41 -105 3 -150 l-26 -31 31 -54 c40 -70
40 -78 -6 -74 -33 3 -39 8 -68 63 -25 48 -37 61 -58 63 -27 3 -27 3 -27 -62
l0 -66 -34 0 -35 0 -3 168 c-2 92 -2 171 0 175 2 5 11 6 19 3 8 -3 51 -6 95
-6z m428 -31 l0 -29 -80 0 -80 0 0 -40 0 -40 73 0 73 0 -2 -27 c-1 -28 -2 -28
-73 -31 l-72 -3 3 -37 3 -37 78 -3 77 -3 0 -29 0 -30 -115 0 -115 0 0 170 0
169 108 3 c59 2 110 2 115 0 4 -2 7 -16 7 -33z m535 -114 c28 -77 55 -153 59
-168 7 -27 6 -28 -30 -25 -33 3 -39 7 -49 38 -12 35 -12 35 -77 38 l-65 3 -12
-41 c-11 -37 -15 -40 -46 -40 -19 0 -35 3 -35 8 0 4 23 78 52 166 56 169 63
179 121 167 28 -6 33 -15 82 -146z m288 141 c20 -8 40 -27 50 -47 l16 -34 -30
-3 c-19 -2 -35 2 -42 12 -7 9 -26 19 -43 22 -25 5 -37 1 -54 -16 -20 -20 -21
-23 -5 -40 10 -11 42 -24 73 -31 69 -14 102 -44 102 -94 0 -47 -14 -71 -50
-90 -70 -36 -181 -9 -205 49 -20 47 -20 46 24 46 30 0 40 -4 44 -20 9 -36 100
-39 114 -3 11 27 -11 46 -75 63 -98 27 -126 67 -98 135 25 58 107 81 179 51z
m-2514 -16 c101 -51 103 -235 3 -293 -23 -14 -60 -21 -123 -25 l-89 -5 0 172
0 171 85 0 c65 0 95 -5 124 -20z m361 -11 l0 -31 -80 4 -81 3 3 -40 3 -40 73
-3 72 -3 0 -29 0 -30 -76 0 -75 0 3 -37 3 -38 78 -3 77 -3 0 -29 0 -30 -115 0
-115 0 0 170 0 170 115 0 115 0 0 -31z m635 9 c4 -13 29 -85 56 -161 27 -76
49 -143 49 -148 0 -5 -15 -9 -34 -9 -30 0 -36 4 -50 40 l-16 40 -63 0 -64 0
-12 -40 c-11 -37 -15 -40 -46 -40 -19 0 -35 5 -35 11 0 8 32 104 102 302 9 24
15 27 58 27 42 0 50 -3 55 -22z m975 -8 l0 -30 -75 0 -75 0 0 -40 0 -40 70 0
70 0 0 -30 0 -30 -70 0 -69 0 -3 -67 c-3 -68 -3 -68 -34 -71 l-31 -3 -6 113
c-4 62 -7 139 -7 171 l0 57 115 0 115 0 0 -30z m-569 -589 c13 -11 21 -23 16
-27 -4 -4 -13 -2 -19 4 -17 17 -58 15 -58 -2 0 -8 17 -23 38 -33 41 -20 55
-60 28 -82 -20 -17 -85 -6 -93 15 -9 24 3 27 31 9 21 -14 29 -15 41 -5 24 20
18 29 -30 50 -25 11 -45 25 -45 33 0 24 31 52 61 56 4 1 17 -8 30 -18z m-1097
-30 l38 -38 -32 -37 c-18 -20 -41 -36 -51 -36 -25 0 -24 9 7 41 l27 28 -33 40
c-27 35 -29 41 -13 41 10 0 36 -17 57 -39z m197 -16 c12 -30 26 -55 29 -55 3
0 14 25 24 55 13 42 22 55 37 55 17 0 19 -6 17 -77 -2 -50 -7 -78 -15 -81 -9
-2 -13 12 -14 50 l-1 53 -24 -52 c-13 -29 -26 -53 -29 -53 -3 0 -16 24 -29 53
l-24 52 -1 -47 c-1 -36 -5 -48 -16 -48 -12 0 -15 15 -15 75 0 67 2 75 19 75
14 0 26 -16 42 -55z m245 47 c18 -11 34 -49 34 -77 0 -32 -41 -75 -73 -75 -57
0 -93 95 -52 140 18 20 69 27 91 12z m168 -14 c19 -27 21 -88 3 -112 -8 -11
-31 -20 -60 -23 l-47 -6 0 82 0 81 44 0 c35 0 48 -5 60 -22z m152 14 c18 -11
34 -49 34 -77 0 -31 -41 -75 -70 -75 -55 0 -90 87 -54 138 15 22 66 30 90 14z
m219 -2 c-3 -5 -22 -10 -41 -10 -27 0 -34 -4 -34 -20 0 -16 7 -20 35 -20 26 0
35 -4 35 -16 0 -13 -7 -15 -35 -11 -32 5 -35 4 -35 -19 0 -24 11 -29 53 -26 9
1 17 -5 17 -14 0 -12 -10 -14 -47 -12 l-48 3 -3 78 -3 77 56 0 c35 0 54 -4 50
-10z m290 -12 c14 -21 14 -23 -1 -27 -9 -1 -21 4 -26 13 -11 19 -39 21 -56 4
-16 -16 -16 -70 0 -86 17 -17 55 -15 62 5 5 13 9 14 19 4 19 -19 -29 -54 -62
-46 -37 9 -52 27 -58 71 -6 51 22 84 72 84 24 0 39 -7 50 -22z m66 -40 c1 -35
1 -66 1 -69 -1 -4 13 -3 31 0 31 7 32 8 35 69 2 46 7 62 17 62 12 0 15 -15 15
-64 0 -56 -3 -67 -22 -80 -28 -20 -58 -20 -83 -2 -26 19 -36 146 -11 146 13 0
16 -12 17 -62z m236 32 c10 -20 10 -29 -3 -47 -13 -20 -13 -26 1 -53 14 -27
14 -30 0 -30 -8 0 -21 12 -28 28 -21 50 -47 56 -47 12 0 -20 -5 -30 -15 -30
-12 0 -15 15 -15 76 l0 75 47 -3 c39 -2 50 -7 60 -28z m153 8 c28 -31 26 -83
-5 -113 -30 -30 -54 -31 -89 -4 -31 24 -36 81 -10 117 21 30 76 30 104 0z
m221 4 c-5 -9 -18 -26 -30 -36 l-21 -19 31 -38 c29 -37 29 -39 10 -39 -21 0
-80 55 -81 75 0 16 63 75 82 75 15 0 17 -4 9 -18z m189 -438 l0 -114 -25 0
c-25 0 -25 1 -25 90 0 82 -8 107 -25 80 -11 -18 -26 -10 -23 13 2 13 16 29 37
39 56 28 61 20 61 -108z m-2440 1 l0 -115 -25 0 c-25 0 -25 1 -25 90 0 50 -3
90 -6 90 -3 0 -14 -4 -24 -10 -13 -7 -19 -6 -24 5 -7 19 42 54 77 55 l27 0 0
-115z m2530 -225 c0 -28 -5 -50 -10 -50 -7 0 -10 20 -9 50 2 28 6 50 11 50 4
0 8 -22 8 -50z m-2692 18 c-9 -7 -19 -24 -21 -38 -4 -21 -4 -20 -6 7 -1 21 -7
33 -18 36 -10 3 0 5 21 6 34 1 37 -1 24 -11z m82 -3 c15 -18 10 -45 -13 -59
-26 -16 -62 27 -47 55 13 23 43 25 60 4z m68 3 c-9 -7 -19 -26 -21 -43 -4 -26
-4 -25 -6 8 0 23 -5 36 -11 32 -5 -3 -10 -1 -10 4 0 6 14 11 32 11 27 0 30 -2
16 -12z m68 -24 c15 -36 11 -61 -6 -34 -8 12 -13 13 -30 2 -23 -14 -24 -10 -8
35 15 42 25 42 44 -3z m44 0 c0 -16 6 -24 17 -24 13 0 14 -3 6 -11 -21 -21
-43 -2 -43 36 0 22 4 34 10 30 6 -3 10 -17 10 -31z m2008 16 c5 -13 3 -13 -11
-2 -19 16 -37 8 -37 -18 0 -26 18 -34 37 -18 14 11 15 11 11 -2 -11 -34 -68
-17 -68 19 0 38 57 55 68 21z m80 -8 c4 -26 -13 -52 -34 -52 -22 0 -36 37 -24
61 15 28 54 22 58 -9z m72 2 c0 14 4 26 8 26 10 0 10 -66 0 -75 -4 -4 -15 6
-25 21 l-18 28 -6 -29 c-6 -25 -7 -23 -8 15 l0 45 24 -28 25 -28 0 25z m95 16
c4 -7 -2 -9 -18 -5 -17 5 -26 2 -31 -11 -9 -24 12 -48 31 -33 7 7 16 10 18 7
3 -3 -2 -11 -11 -18 -29 -25 -65 16 -50 56 6 16 52 19 61 4z m48 -54 c9 1 17
-2 17 -7 0 -5 -11 -9 -25 -9 -23 0 -25 3 -24 43 l2 42 6 -35 c4 -25 11 -35 24
-34z m49 32 c2 -18 8 -33 13 -33 6 0 11 15 13 33 2 17 8 32 13 32 16 0 6 -62
-13 -73 -23 -15 -48 8 -48 44 0 40 18 37 22 -3z m152 10 c15 -25 -3 -52 -38
-56 -24 -3 -26 -1 -26 38 0 39 2 41 26 38 15 -2 32 -11 38 -20z m72 -21 c7
-21 9 -37 3 -37 -5 0 -9 5 -9 10 0 14 -38 12 -43 -2 -2 -7 -7 -10 -11 -7 -10
9 26 80 38 76 5 -2 15 -20 22 -40z m74 34 c0 -5 -10 -7 -22 -4 -21 4 -21 3 4
-17 16 -12 25 -27 21 -35 -6 -18 -39 -20 -49 -3 -5 8 -2 9 9 5 9 -3 19 -2 22
3 3 5 -4 11 -15 15 -30 10 -26 45 5 45 14 0 25 -4 25 -9z m-1938 -41 c29 -29
30 -34 26 -97 -4 -57 -8 -69 -32 -89 -51 -44 -127 -21 -145 44 -14 50 -14 65
5 111 26 67 95 81 146 31z m867 11 c40 -40 49 -140 18 -182 -33 -43 -93 -50
-133 -15 -24 20 -28 32 -32 89 -4 63 -3 68 26 97 37 36 91 41 121 11z m1001
-118 c0 -10 -53 -13 -280 -13 -170 0 -280 4 -280 9 0 14 70 17 333 17 183 1
227 -2 227 -13z m-2092 -221 c11 -31 10 -32 -15 -26 -16 4 -28 2 -34 -7 -15
-24 -11 7 6 48 17 40 26 37 43 -15z m97 38 c3 -5 -3 -10 -14 -10 -25 0 -28
-20 -3 -21 15 -1 15 -2 0 -6 -9 -2 -19 -12 -21 -21 -3 -9 -5 2 -6 26 -1 35 2
42 18 42 11 0 23 -4 26 -10z m60 -26 c8 -20 15 -42 14 -48 0 -7 -2 -6 -6 2 -2
6 -12 12 -22 12 -9 0 -23 -6 -30 -12 -11 -11 -12 -8 -6 12 13 43 24 70 30 70
2 0 12 -16 20 -36z m85 18 c0 -3 -10 -16 -22 -29 l-21 -23 22 0 c12 0 19 -4
16 -10 -8 -13 -42 -13 -50 1 -4 6 3 21 16 35 l22 24 -22 0 c-12 0 -20 4 -17 9
6 9 56 3 56 -7z m135 -30 c1 -35 -4 -39 -23 -20 -10 10 -15 10 -22 -2 -7 -11
-10 -3 -10 27 0 40 1 41 28 34 22 -6 27 -13 27 -39z m275 38 c0 -5 -7 -10 -15
-10 -24 0 -17 -20 8 -21 l22 -2 -22 -4 c-26 -5 -31 -23 -8 -23 8 0 15 -4 15
-10 0 -19 -39 -10 -45 11 -11 33 3 69 25 69 11 0 20 -4 20 -10z m49 -17 l12
-27 18 27 c10 15 21 24 24 20 11 -10 8 -71 -3 -78 -6 -3 -10 4 -10 17 -1 20
-2 21 -11 6 -12 -22 -29 -23 -29 -3 0 8 -4 15 -10 15 -5 0 -7 -6 -4 -14 3 -8
1 -17 -5 -21 -7 -4 -11 10 -11 39 0 52 11 59 29 19z m151 12 c10 -12 10 -18 0
-30 -7 -8 -18 -15 -25 -15 -8 0 -16 -8 -18 -17 -3 -10 -5 3 -6 30 -1 40 2 47
18 47 10 0 24 -7 31 -15z m67 3 c6 -7 10 -28 10 -46 0 -29 -2 -31 -15 -18 -14
13 -17 13 -28 -2 -12 -15 -13 -11 -14 31 0 39 3 47 19 47 10 0 23 -6 28 -12z
m74 2 c22 -13 25 -52 5 -69 -35 -29 -76 35 -44 67 15 15 15 15 39 2z m86 3
c16 -6 15 -8 -7 -13 -33 -8 -42 -50 -11 -50 25 0 28 17 4 23 -14 4 -12 5 5 6
16 1 22 -5 22 -19 0 -15 -7 -20 -29 -20 -38 0 -51 32 -25 61 20 22 17 21 41
12z m93 -23 c0 -5 -5 -12 -10 -15 -8 -5 -7 -11 1 -21 14 -17 -2 -19 -19 -2
-10 10 -15 10 -22 -2 -7 -11 -10 -5 -10 22 0 20 6 38 13 41 15 5 47 -10 47
-23z m131 14 c12 -15 11 -16 -9 -10 -13 5 -22 3 -22 -3 0 -6 6 -11 14 -11 8 0
18 -5 22 -11 9 -16 -20 -41 -39 -33 -24 9 -21 23 3 17 11 -3 20 0 20 6 0 6 -7
11 -15 11 -21 0 -31 30 -14 41 20 12 25 11 40 -7z m67 -2 c2 -8 -3 -10 -15 -6
-13 4 -11 0 7 -15 23 -19 24 -21 8 -37 -9 -9 -24 -14 -32 -11 -24 10 -19 26 7
21 l22 -5 -22 17 c-25 18 -30 40 -10 47 17 7 30 3 35 -11z m82 4 c28 -34 -11
-94 -44 -67 -21 18 -20 57 2 70 23 14 28 13 42 -3z m-1162 -3 c-10 -2 -18 -9
-18 -14 0 -5 8 -10 18 -10 16 -1 16 -2 0 -6 -10 -2 -18 -8 -18 -13 0 -5 8 -11
18 -13 10 -3 6 -5 -10 -6 -25 -1 -28 2 -28 34 0 32 3 35 28 34 16 -1 20 -3 10
-6z m935 0 c-27 -5 -31 -22 -5 -24 16 -1 16 -2 0 -6 -22 -5 -24 -23 -3 -23 8
0 15 -4 15 -9 0 -4 -11 -6 -25 -3 -21 4 -25 10 -25 38 0 32 2 34 33 33 23 -1
26 -3 10 -6z m-833 -148 c0 -13 -32 -15 -230 -15 -198 0 -230 2 -230 15 0 13
32 15 230 15 198 0 230 -2 230 -15z m900 0 c0 -13 -36 -15 -260 -15 -224 0
-260 2 -260 15 0 13 36 15 260 15 224 0 260 -2 260 -15z"/>
<path d="M2697 4859 c7 -7 15 -10 18 -7 3 3 -2 9 -12 12 -14 6 -15 5 -6 -5z"/>
<path d="M3330 4645 c-38 -14 -47 -41 -18 -58 28 -18 68 7 68 43 0 33 0 33
-50 15z"/>
<path d="M4517 4742 c-36 -8 -49 -90 -21 -130 34 -49 94 -12 94 58 0 19 -4 40
-8 46 -11 17 -45 31 -65 26z"/>
<path d="M4851 4104 c-26 -33 -29 -128 -6 -161 19 -27 75 -39 105 -23 51 27
63 147 19 191 -30 30 -92 26 -118 -7z"/>
<path d="M2710 4080 l0 -50 35 0 c36 0 75 28 75 53 0 24 -36 47 -73 47 l-37 0
0 -50z"/>
<path d="M4186 4056 c-9 -30 -16 -57 -16 -60 0 -3 18 -6 39 -6 l40 0 -21 60
c-11 33 -21 60 -23 60 -2 0 -11 -24 -19 -54z"/>
<path d="M4490 4025 l0 -105 45 0 c66 0 95 31 95 100 0 44 -5 56 -29 81 -23
23 -39 29 -70 29 l-41 0 0 -105z"/>
<path d="M5193 4122 c-6 -13 3 -81 10 -89 12 -11 89 12 98 30 20 36 -3 64 -57
69 -32 2 -48 -1 -51 -10z"/>
<path d="M3720 3599 l0 -52 40 6 c49 6 70 22 70 51 0 33 -19 46 -67 46 l-43 0
0 -51z"/>
<path d="M4611 3588 c-7 -24 -15 -51 -17 -60 -5 -15 1 -18 35 -18 23 0 41 1
41 3 0 10 -34 103 -40 110 -3 4 -12 -12 -19 -35z"/>
<path d="M2362 3543 l3 -108 40 3 c22 2 51 11 65 21 21 15 25 27 28 80 3 54 0
64 -22 86 -19 19 -35 25 -71 25 l-46 0 3 -107z"/>
<path d="M3421 3587 c-7 -23 -15 -50 -17 -59 -5 -15 1 -18 36 -18 33 0 41 3
37 14 -3 8 -11 33 -17 55 -15 55 -25 58 -39 8z"/>
<path d="M3175 3056 c-33 -49 15 -117 56 -80 33 30 18 104 -21 104 -11 0 -27
-11 -35 -24z"/>
<path d="M3330 3026 c0 -56 0 -56 30 -56 65 0 62 101 -3 108 -27 3 -27 2 -27
-52z"/>
<path d="M3494 3056 c-13 -22 -14 -29 -2 -53 25 -52 78 -38 78 21 0 57 -46 76
-76 32z"/>
<path d="M4302 3053 c2 -22 8 -27 23 -25 28 5 37 16 29 35 -3 10 -17 17 -31
17 -21 0 -24 -4 -21 -27z"/>
<path d="M4444 3055 c-14 -21 -14 -30 -4 -55 22 -53 80 -35 80 25 0 56 -47 75
-76 30z"/>
<path d="M2374 2425 c-7 -18 3 -35 22 -35 8 0 14 10 14 25 0 27 -27 35 -36 10z"/>
<path d="M2526 2415 c-3 -8 -1 -15 4 -15 6 0 10 7 10 15 0 8 -2 15 -4 15 -2 0
-6 -7 -10 -15z"/>
<path d="M4647 2434 c-15 -15 -7 -45 11 -42 9 2 17 12 17 22 0 20 -16 31 -28
20z"/>
<path d="M5062 2416 c2 -15 8 -26 13 -26 15 0 12 43 -3 48 -10 3 -13 -4 -10
-22z"/>
<path d="M5140 2410 c0 -5 5 -10 10 -10 6 0 10 5 10 10 0 6 -4 10 -10 10 -5 0
-10 -4 -10 -10z"/>
<path d="M3213 2353 c-13 -33 -14 -43 -2 -78 26 -76 79 -50 79 38 0 37 -24 77
-46 77 -8 0 -22 -17 -31 -37z"/>
<path d="M4090 2371 c-14 -28 -13 -104 3 -125 17 -24 48 -17 65 14 14 27 8 95
-10 117 -16 19 -46 16 -58 -6z"/>
<path d="M3055 2080 c-3 -5 -1 -10 4 -10 6 0 11 5 11 10 0 6 -2 10 -4 10 -3 0
-8 -4 -11 -10z"/>
<path d="M3220 2075 c0 -8 4 -15 10 -15 5 0 7 7 4 15 -4 8 -8 15 -10 15 -2 0
-4 -7 -4 -15z"/>
<path d="M3420 2090 c0 -5 7 -10 15 -10 8 0 15 5 15 10 0 6 -7 10 -15 10 -8 0
-15 -4 -15 -10z"/>
<path d="M3902 2089 c2 -6 8 -10 13 -10 5 0 11 4 13 10 2 6 -4 11 -13 11 -9 0
-15 -5 -13 -11z"/>
<path d="M3970 2090 c0 -5 7 -10 15 -10 8 0 15 5 15 10 0 6 -7 10 -15 10 -8 0
-15 -4 -15 -10z"/>
<path d="M4050 2075 c0 -20 4 -26 18 -23 9 2 17 12 17 23 0 11 -8 21 -17 23
-14 3 -18 -3 -18 -23z"/>
<path d="M4210 2090 c0 -5 7 -10 15 -10 8 0 15 5 15 10 0 6 -7 10 -15 10 -8 0
-15 -4 -15 -10z"/>
<path d="M4496 2084 c-4 -10 -2 -22 3 -27 14 -14 43 0 39 20 -4 24 -34 28 -42
7z"/>
<path d="M2410 1966 c0 -2 7 -7 16 -10 8 -3 12 -2 9 4 -6 10 -25 14 -25 6z"/>
<path d="M2680 1783 c8 -3 24 -10 35 -15 20 -9 20 -9 1 6 -11 9 -27 16 -35 15
-14 0 -14 -1 -1 -6z"/>
<path d="M4740 6070 c-9 -16 -9 -25 -1 -33 16 -16 46 4 46 29 0 27 -31 29 -45
4z"/>
<path d="M2544 6056 c-7 -19 12 -46 33 -46 21 0 13 54 -10 58 -9 2 -20 -4 -23
-12z"/>
<path d="M2240 5874 c0 -9 5 -14 12 -12 18 6 21 28 4 28 -9 0 -16 -7 -16 -16z"/>
<path d="M2265 5850 c-3 -5 -4 -14 0 -20 8 -13 35 -1 35 16 0 16 -26 19 -35 4z"/>
<path d="M5650 5346 c-26 -28 -21 -56 9 -56 29 0 57 45 41 65 -17 20 -23 19
-50 -9z"/>
<path d="M1590 5205 c0 -17 36 -39 50 -30 15 9 12 32 -6 39 -26 10 -44 7 -44
-9z"/>
<path d="M5930 4906 c0 -9 5 -16 10 -16 6 0 10 4 10 9 0 6 -4 13 -10 16 -5 3
-10 -1 -10 -9z"/>
<path d="M1334 4729 c-3 -6 -1 -16 5 -22 9 -9 14 -8 21 3 5 8 10 18 10 23 0
11 -28 8 -36 -4z"/>
<path d="M1204 4379 c-9 -15 11 -33 30 -26 9 4 13 13 10 22 -7 17 -30 20 -40
4z"/>
<path d="M6150 4111 c0 -12 6 -21 16 -21 9 0 14 7 12 17 -5 25 -28 28 -28 4z"/>
<path d="M6166 3911 c-4 -6 -3 -19 3 -28 9 -17 10 -17 17 0 8 21 -10 45 -20
28z"/>
<path d="M6070 3255 c0 -20 43 -47 64 -39 22 8 20 31 -3 44 -29 15 -61 12 -61
-5z"/>
<path d="M6021 3081 c-12 -21 -5 -31 20 -31 21 0 31 24 16 39 -16 16 -25 14
-36 -8z"/>
<path d="M1310 3065 c-18 -22 0 -38 34 -29 31 7 33 19 7 34 -25 13 -26 13 -41
-5z"/>
<path d="M5893 2753 c-21 -7 -15 -31 11 -48 24 -16 56 -11 56 9 0 15 -51 45
-67 39z"/>
<path d="M5062 1763 c4 -34 48 -48 48 -16 0 22 -18 43 -38 43 -9 0 -12 -9 -10
-27z"/>
</g>
</svg>
