<?xml version="1.0" standalone="no"?>
<!DOCTYPE svg PUBLIC "-//W3C//DTD SVG 20010904//EN"
 "http://www.w3.org/TR/2001/REC-SVG-20010904/DTD/svg10.dtd">
<svg version="1.0" xmlns="http://www.w3.org/2000/svg"
 width="712.000000pt" height="768.000000pt" viewBox="0 0 712.000000 768.000000"
 preserveAspectRatio="xMidYMid meet">

<g transform="translate(0.000000,768.000000) scale(0.100000,-0.100000)"
fill="#000000" stroke="none">
<path d="M3498 6327 l-27 -42 27 -3 c15 -2 29 -7 32 -12 3 -4 11 -2 18 6 7 8
8 14 2 14 -5 0 -10 18 -10 40 0 22 -3 40 -7 40 -5 0 -20 -19 -35 -43z m29 -34
c-3 -3 -13 -3 -21 -1 -15 3 -15 6 1 28 l18 25 3 -23 c2 -13 1 -26 -1 -29z"/>
<path d="M3592 6358 c-25 -25 0 -80 29 -63 7 5 10 1 7 -11 -2 -12 -12 -19 -25
-18 -12 0 -20 -3 -17 -8 10 -15 43 -8 54 11 21 41 7 101 -25 101 -6 0 -16 -5
-23 -12z m42 -15 c8 -19 -17 -48 -33 -39 -12 8 -15 39 -4 49 12 12 31 7 37
-10z"/>
<path d="M3163 6353 c-7 -2 -13 -9 -13 -14 0 -4 7 -6 15 -3 12 5 15 -2 15 -34
0 -23 5 -44 12 -48 8 -5 9 0 5 17 -4 13 -7 39 -7 57 0 32 -4 35 -27 25z"/>
<path d="M3110 6338 c0 -10 -9 -18 -22 -20 -17 -2 -24 -11 -26 -34 -4 -37 20
-63 41 -45 8 6 17 8 20 4 11 -10 8 80 -3 97 -8 13 -10 13 -10 -2z m5 -48 c8
-26 -1 -40 -26 -40 -13 0 -19 7 -19 23 0 40 34 53 45 17z"/>
<path d="M3313 6333 c27 -4 35 -17 17 -28 -5 -3 -15 -15 -20 -26 -10 -17 -7
-19 22 -18 22 1 26 3 11 6 l-22 4 21 35 20 34 -39 -1 c-30 -2 -32 -3 -10 -6z"/>
<path d="M3384 6315 c-9 -38 2 -58 31 -53 18 4 25 0 28 -16 2 -12 4 6 5 39 0
50 -1 54 -8 27 -9 -40 -15 -46 -35 -39 -23 9 -18 46 8 57 l22 9 -22 0 c-16 1
-24 -6 -29 -24z"/>
<path d="M3721 6306 c-7 -8 -11 -25 -9 -38 2 -18 9 -23 33 -23 28 0 30 3 30
35 0 28 -4 36 -21 38 -11 2 -26 -4 -33 -12z m49 -21 c0 -28 -25 -44 -42 -27
-15 15 1 52 23 52 14 0 19 -7 19 -25z"/>
<path d="M2977 6303 c-11 -3 -16 -10 -13 -20 3 -8 6 -26 6 -39 0 -13 3 -24 8
-24 4 0 7 17 7 37 0 49 25 51 39 3 5 -20 11 -28 13 -19 6 23 -14 69 -29 68 -7
-1 -21 -3 -31 -6z"/>
<path d="M3243 6303 c9 -2 23 -2 30 0 6 3 -1 5 -18 5 -16 0 -22 -2 -12 -5z"/>
<path d="M3806 6279 c-9 -49 -6 -58 8 -19 18 49 42 46 39 -5 -2 -32 0 -36 8
-22 6 10 9 30 7 45 -2 21 -9 28 -29 30 -22 3 -27 -2 -33 -29z"/>
<path d="M3896 6265 c-4 -20 -5 -40 -2 -43 3 -3 6 0 6 7 0 6 12 24 26 38 18
18 20 24 8 19 -9 -4 -21 -2 -24 5 -4 6 -11 -6 -14 -26z"/>
<path d="M2817 6277 c-5 -15 23 -87 34 -87 16 0 18 18 3 24 -11 4 -15 14 -12
29 5 25 -17 56 -25 34z"/>
<path d="M2880 6270 c-22 -41 20 -82 56 -55 17 13 16 14 -13 9 -40 -8 -46 12
-7 22 31 8 29 38 -3 42 -14 2 -26 -4 -33 -18z m45 0 c3 -5 -3 -10 -15 -10 -12
0 -18 5 -15 10 3 6 10 10 15 10 5 0 12 -4 15 -10z"/>
<path d="M3949 6256 c-14 -31 2 -57 35 -55 20 1 20 2 1 6 -39 9 -40 23 -1 23
33 0 37 3 34 23 -5 34 -54 36 -69 3z m56 3 c10 -15 -1 -22 -24 -14 -12 3 -19
11 -16 16 8 12 32 11 40 -2z"/>
<path d="M3675 6260 c-3 -5 -1 -10 4 -10 6 0 11 5 11 10 0 6 -2 10 -4 10 -3 0
-8 -4 -11 -10z"/>
<path d="M2746 6253 c-14 -4 -17 -11 -12 -35 3 -17 6 -34 6 -39 0 -5 5 -9 10
-9 6 0 8 11 4 25 -3 14 -3 32 0 41 5 13 9 14 21 4 8 -7 15 -21 15 -31 0 -10 5
-21 10 -24 13 -8 2 44 -13 63 -10 13 -11 13 -41 5z"/>
<path d="M4036 6229 c-9 -49 -6 -58 8 -19 7 19 21 37 31 39 16 3 17 -2 11 -40
-8 -48 0 -49 13 -1 10 35 -1 52 -35 52 -16 0 -23 -8 -28 -31z"/>
<path d="M4185 6206 c-9 -24 -15 -50 -13 -57 2 -6 12 12 21 41 21 66 15 78 -8
16z"/>
<path d="M4130 6219 c-14 -26 -9 -61 10 -67 12 -4 13 -2 3 9 -27 28 -1 83 25
57 8 -8 12 -9 12 -1 0 9 -21 23 -35 23 -3 0 -9 -9 -15 -21z"/>
<path d="M2650 6215 c-15 -18 -6 -61 16 -69 24 -9 54 12 54 37 0 43 -44 63
-70 32z m51 -16 c8 -17 8 -24 -3 -35 -22 -22 -43 2 -39 44 2 20 29 14 42 -9z"/>
<path d="M2527 6198 c-4 -12 -3 -25 1 -28 4 -3 13 -18 20 -34 7 -16 15 -26 18
-23 3 3 0 15 -6 27 -6 12 -9 27 -7 34 3 6 -1 20 -8 29 -12 16 -13 16 -18 -5z"/>
<path d="M2599 6203 c-14 -3 -15 -9 -6 -39 6 -18 14 -34 18 -34 5 0 4 11 -1
24 -5 15 -5 27 3 35 13 13 8 19 -14 14z"/>
<path d="M4217 6194 c-21 -21 1 -74 31 -74 9 0 6 7 -9 20 l-24 20 35 -3 c29
-2 35 1 35 18 0 15 -8 21 -30 23 -17 2 -34 0 -38 -4z m58 -14 c4 -6 -5 -10
-19 -10 -14 0 -26 5 -26 10 0 6 9 10 19 10 11 0 23 -4 26 -10z"/>
<path d="M4311 6154 c-12 -15 -21 -32 -21 -38 0 -6 7 -2 16 9 8 11 21 25 30
32 9 6 11 14 5 17 -5 3 -19 -6 -30 -20z"/>
<path d="M3120 6145 c-540 -76 -999 -309 -1375 -696 -257 -265 -423 -536 -542
-884 -66 -196 -99 -371 -113 -615 -24 -407 50 -775 230 -1145 241 -494 635
-884 1117 -1106 606 -279 1266 -297 1868 -52 723 294 1264 941 1415 1693 45
223 53 320 47 550 -6 216 -19 319 -67 512 -69 283 -218 593 -403 838 -91 120
-292 328 -315 326 -9 0 -16 5 -15 11 4 17 -138 134 -154 128 -7 -2 -12 1 -10
8 1 7 -6 11 -15 11 -10 -1 -16 2 -13 6 3 5 -25 28 -62 53 -268 175 -536 281
-882 349 -137 27 -561 34 -711 13z m510 -15 c630 -56 1211 -369 1609 -865 186
-231 352 -558 421 -830 63 -246 74 -337 74 -615 1 -280 -6 -330 -68 -575 -44
-172 -93 -300 -178 -467 -230 -455 -575 -797 -1036 -1027 -367 -183 -732 -259
-1149 -239 -384 18 -769 143 -1113 358 -353 222 -666 570 -840 935 -107 227
-162 401 -207 660 -22 126 -26 182 -26 345 0 107 5 238 12 290 70 521 275 955
626 1319 168 174 354 320 543 423 42 23 69 44 65 50 -3 6 -1 8 5 4 6 -3 46 10
89 30 140 64 315 122 468 155 83 17 153 36 156 41 3 5 17 7 30 4 13 -3 60 -2
104 3 117 12 284 12 415 1z"/>
<path d="M2172 4904 l-113 -66 3 -136 3 -136 104 -59 c57 -32 105 -56 108 -53
3 2 6 65 7 139 l2 135 -88 47 -88 48 85 49 c46 26 90 48 96 48 7 0 42 -16 78
-37 114 -63 113 -54 16 -108 l-85 -48 0 -138 c0 -77 3 -139 8 -139 4 0 52 26
107 58 l100 58 0 139 0 139 -114 63 c-63 35 -115 63 -115 63 -1 0 -52 -30
-114 -66z m26 -180 l62 -35 0 -94 0 -94 -72 41 c-96 54 -97 54 -94 91 2 18 4
56 5 86 1 61 -2 61 99 5z"/>
<path d="M2707 4874 c-4 -4 -7 -18 -7 -30 0 -21 5 -23 53 -26 l52 -3 3 -138 3
-138 32 3 32 3 -4 138 -3 137 57 0 c56 0 56 0 53 28 l-3 27 -131 3 c-71 1
-133 -1 -137 -4z"/>
<path d="M3510 4711 l0 -171 35 0 c35 0 35 0 35 44 0 25 4 47 9 50 4 3 23 -17
42 -44 32 -47 37 -50 77 -50 l43 0 -28 38 c-15 20 -38 50 -50 65 -13 16 -23
32 -23 37 0 5 18 30 40 55 22 25 40 48 40 51 0 2 -16 4 -35 4 -30 0 -40 -7
-75 -51 l-40 -51 -2 59 c-1 32 -2 74 -2 93 -1 32 -4 35 -33 38 l-33 3 0 -170z"/>
<path d="M3780 4710 l0 -170 35 0 35 0 0 70 0 70 71 0 70 0 -3 28 c-3 26 -5
27 -70 30 l-68 3 0 39 0 40 76 0 75 0 -3 28 -3 27 -107 3 -108 3 0 -171z"/>
<path d="M4044 4867 c-2 -7 -3 -82 -2 -167 l3 -155 33 -3 32 -3 0 170 0 171
-30 0 c-17 0 -33 -6 -36 -13z"/>
<path d="M4229 4784 c-46 -19 -69 -60 -69 -122 0 -61 32 -106 85 -121 42 -11
101 1 127 27 29 29 40 91 25 143 -10 37 -19 48 -57 67 -51 26 -62 26 -111 6z
m78 -52 c23 -15 34 -63 23 -98 -23 -69 -100 -49 -100 25 0 60 39 97 77 73z"/>
<path d="M3007 4758 l-32 -33 29 -3 c16 -2 39 2 51 8 32 17 70 9 70 -15 0 -16
-9 -21 -48 -27 -67 -9 -97 -31 -97 -69 0 -67 47 -97 116 -73 24 8 40 10 42 4
2 -6 17 -10 33 -10 l29 0 0 90 c0 49 -5 100 -11 113 -14 32 -49 47 -105 47
-38 0 -51 -5 -77 -32z m123 -128 c0 -36 -38 -57 -71 -40 -21 12 -26 39 -6 44
10 3 67 22 75 25 1 1 2 -13 2 -29z"/>
<path d="M3276 4769 c-19 -15 -26 -30 -26 -54 0 -38 26 -59 90 -74 49 -11 54
-15 47 -36 -8 -18 -60 -20 -75 -2 -6 7 -24 12 -39 11 -22 -1 -27 -5 -25 -20 8
-44 79 -71 143 -54 43 12 69 42 69 81 0 35 -26 57 -78 65 -45 7 -77 29 -67 45
8 12 75 12 75 -1 0 -5 16 -10 36 -10 29 0 35 3 30 16 -3 9 -6 17 -6 20 0 2
-13 10 -30 19 -43 22 -112 19 -144 -6z"/>
<path d="M4434 4768 c4 -13 19 -69 33 -125 l27 -103 38 0 c40 0 39 -1 64 105
12 53 17 50 38 -26 21 -73 22 -74 58 -77 41 -3 36 -11 78 143 12 43 24 85 27
92 4 9 -5 13 -29 13 l-35 0 -18 -75 c-11 -41 -22 -75 -25 -75 -4 0 -14 34 -24
75 l-18 75 -33 0 c-32 0 -35 -3 -45 -42 -6 -24 -16 -61 -22 -83 l-11 -40 -9
45 c-24 117 -26 120 -65 120 -32 0 -35 -2 -29 -22z"/>
<path d="M1845 4191 c-76 -19 -117 -78 -116 -172 0 -102 49 -159 144 -167 41
-3 63 1 94 16 45 23 61 54 65 122 l3 45 -70 0 c-69 0 -70 0 -73 -27 -3 -27 -1
-28 38 -28 34 0 41 -3 36 -16 -3 -9 -6 -17 -6 -20 0 -2 -14 -11 -31 -19 -66
-35 -129 15 -129 102 0 89 83 133 148 78 36 -31 82 -34 82 -6 0 29 -52 78 -96
90 -43 12 -46 12 -89 2z"/>
<path d="M3429 4191 c-71 -22 -105 -67 -115 -153 -9 -74 19 -135 75 -166 72
-41 174 -21 212 42 28 46 25 56 -21 56 -27 0 -40 -4 -40 -14 0 -22 -27 -38
-66 -39 -55 -2 -84 37 -84 109 0 45 4 59 25 79 35 36 84 34 119 -6 20 -22 34
-29 54 -27 22 2 26 7 24 28 -4 34 -49 78 -91 90 -41 11 -56 11 -92 1z"/>
<path d="M4595 4185 c-76 -27 -113 -96 -102 -192 16 -143 206 -197 288 -82 20
29 24 46 24 111 0 62 -4 82 -21 104 -47 64 -117 86 -189 59z m110 -72 c23 -23
35 -58 35 -102 0 -70 -61 -116 -120 -91 -35 14 -50 48 -50 111 0 40 5 55 25
74 29 30 85 34 110 8z"/>
<path d="M2090 4020 l0 -170 115 0 115 0 0 30 0 29 -77 3 -78 3 -3 37 -3 37
73 3 c71 3 73 4 76 31 l3 27 -75 0 -76 0 0 40 0 40 80 0 80 0 0 30 0 30 -115
0 -115 0 0 -170z"/>
<path d="M2380 4019 l0 -170 33 3 c32 3 32 4 35 61 3 56 4 58 29 55 21 -2 35
-17 60 -60 31 -53 37 -58 68 -58 19 0 35 3 35 8 0 4 -14 33 -30 66 l-30 58 25
30 c37 44 35 109 -4 149 -28 28 -33 29 -125 29 l-96 0 0 -171z m170 92 c24
-47 -1 -81 -61 -81 l-39 0 0 50 0 50 45 0 c34 0 47 -5 55 -19z"/>
<path d="M2690 4020 l0 -170 115 0 115 0 0 30 0 29 -77 3 -78 3 -3 38 -3 37
75 0 76 0 0 30 0 29 -72 3 -73 3 -3 38 -3 37 80 0 81 0 0 30 0 30 -115 0 -115
0 0 -170z"/>
<path d="M2973 4093 c4 -54 7 -131 7 -171 l0 -73 33 3 32 3 2 93 c0 51 3 96 6
98 3 3 26 -25 53 -63 92 -132 93 -133 125 -133 l29 0 0 170 0 170 -35 0 -35 0
0 -100 c0 -55 -3 -100 -7 -100 -5 1 -38 46 -76 100 -65 96 -69 100 -104 100
l-36 0 6 -97z"/>
<path d="M3672 4023 l3 -168 30 0 30 0 3 168 2 167 -35 0 -35 0 2 -167z"/>
<path d="M3872 4103 c-17 -49 -42 -119 -56 -156 -34 -90 -34 -97 8 -97 30 0
36 4 50 40 l16 40 60 0 60 0 16 -40 c14 -36 20 -40 50 -40 42 0 42 7 9 97 -15
37 -40 107 -57 156 l-31 87 -48 0 -47 0 -30 -87z m102 -57 c9 -27 16 -51 16
-53 0 -2 -18 -3 -41 -3 -35 0 -40 3 -34 18 3 9 11 36 18 59 13 49 18 46 41
-21z"/>
<path d="M4160 4020 l0 -170 78 0 c140 0 204 53 204 170 0 70 -21 114 -72 147
-28 20 -46 23 -121 23 l-89 0 0 -170z m181 81 c24 -25 29 -38 29 -79 0 -73
-26 -102 -91 -102 l-49 0 0 105 0 105 41 0 c31 0 47 -6 70 -29z"/>
<path d="M4868 4068 c-4 -235 -7 -213 32 -213 l35 0 3 58 c3 57 4 58 30 55 21
-2 33 -15 57 -60 28 -55 32 -58 68 -58 20 0 37 2 37 5 0 3 -14 33 -30 66 l-31
60 26 30 c38 46 35 111 -6 150 -30 28 -35 29 -125 29 l-94 0 -2 -122z m166 46
c36 -36 12 -72 -54 -81 l-40 -6 0 52 0 51 39 0 c23 0 46 -7 55 -16z"/>
<path d="M3703 3705 c-2 -6 -2 -83 -1 -170 l3 -160 104 -3 c58 -1 110 -1 117
2 7 2 9 15 7 30 -5 25 -8 26 -79 26 l-74 0 0 40 0 40 70 0 70 0 0 30 0 30 -70
0 c-77 0 -88 8 -76 55 6 23 11 24 84 27 76 3 77 3 74 28 -2 14 -5 26 -5 27 -1
1 -51 3 -111 5 -69 2 -110 -1 -113 -7z"/>
<path d="M4324 3705 c-2 -5 -26 -75 -54 -155 -28 -80 -54 -153 -57 -162 -4
-15 1 -18 31 -18 33 0 38 4 52 40 l16 40 63 0 62 0 12 -40 c11 -37 15 -40 46
-40 23 0 35 5 35 13 0 16 -95 294 -109 317 -9 17 -91 21 -97 5z m90 -195 c-1
-3 -20 -4 -42 -2 l-40 4 20 61 21 61 22 -60 c12 -32 20 -61 19 -64z"/>
<path d="M4643 3709 c-80 -23 -100 -133 -30 -171 12 -6 44 -17 71 -23 56 -13
77 -35 60 -62 -18 -29 -70 -28 -99 1 -33 33 -85 36 -85 6 0 -11 13 -34 29 -52
28 -32 32 -33 106 -33 74 0 77 1 107 34 25 28 29 39 24 70 -6 40 -42 78 -84
87 -91 19 -120 45 -86 78 19 19 72 14 90 -10 6 -8 25 -17 43 -20 26 -5 31 -3
31 13 0 29 -29 64 -66 79 -37 16 -64 16 -111 3z"/>
<path d="M2032 3543 l3 -168 85 0 c108 0 150 19 180 79 40 84 19 185 -49 232
-31 21 -47 24 -129 24 l-92 0 2 -167z m185 83 c25 -22 28 -31 28 -86 -1 -77
-22 -100 -91 -100 l-44 0 0 105 0 105 39 0 c28 0 49 -7 68 -24z"/>
<path d="M2372 3543 l3 -168 115 0 115 0 3 28 3 27 -80 0 -81 0 0 40 0 40 70
0 70 0 0 30 0 30 -70 0 -70 0 0 40 0 39 78 3 c75 3 77 4 77 28 l0 25 -118 3
-117 3 2 -168z"/>
<path d="M2750 3680 c0 -30 1 -30 55 -30 l55 0 0 -141 0 -140 33 3 32 3 3 138
3 137 49 0 c49 0 50 1 50 30 l0 30 -140 0 -140 0 0 -30z"/>
<path d="M3130 3700 c0 -7 -25 -81 -55 -166 -30 -85 -55 -157 -55 -159 0 -3
16 -5 35 -5 30 0 37 5 55 40 20 40 21 40 80 40 l59 0 12 -40 c11 -38 14 -40
51 -40 21 0 38 2 38 4 0 6 -77 224 -99 281 l-19 50 -51 3 c-33 2 -51 -1 -51
-8z m79 -132 l21 -58 -44 0 -44 0 14 48 c27 90 23 89 53 10z"/>
<path d="M3390 3540 l0 -170 35 0 35 0 0 58 c0 32 2 61 5 64 3 3 17 3 30 0 18
-3 34 -21 56 -63 31 -57 33 -59 71 -59 22 0 38 3 36 8 -2 4 -18 35 -36 70 -18
34 -28 62 -22 62 17 0 50 62 50 93 0 37 -27 82 -57 96 -13 6 -64 11 -113 11
l-90 0 0 -170z m174 94 c36 -36 -1 -84 -64 -84 l-40 0 0 50 0 50 44 0 c27 0
51 -6 60 -16z"/>
<path d="M3990 3540 l0 -170 35 0 35 0 0 70 0 70 70 0 70 0 0 30 c0 29 0 29
-67 32 l-68 3 -3 38 -3 37 80 0 81 0 0 30 0 30 -115 0 -115 0 0 -170z"/>
<path d="M2939 3098 c-75 -25 -52 -158 26 -158 42 0 65 27 65 79 0 66 -37 98
-91 79z m57 -43 c12 -18 14 -31 7 -52 -17 -50 -83 -39 -83 14 0 61 46 84 76
38z"/>
<path d="M3252 3098 c-33 -16 -50 -82 -31 -116 20 -37 63 -51 97 -31 54 30 51
123 -4 148 -29 13 -32 13 -62 -1z m62 -34 c21 -21 20 -57 -2 -84 -15 -19 -22
-21 -39 -11 -26 13 -37 43 -27 74 12 39 42 48 68 21z"/>
<path d="M3464 3087 c-37 -32 -40 -100 -5 -128 13 -10 33 -19 46 -19 30 0 71
33 61 49 -6 9 -12 8 -26 -4 -44 -40 -98 13 -72 70 13 28 59 35 68 10 7 -16 34
-21 34 -6 0 13 -49 51 -66 51 -7 0 -25 -10 -40 -23z"/>
<path d="M3908 3102 c-28 -3 -28 -4 -28 -83 0 -46 4 -79 10 -79 6 0 10 14 10
30 0 23 4 30 20 30 13 0 24 -10 30 -25 5 -14 16 -25 25 -25 19 0 19 10 0 37
-13 18 -13 22 0 33 8 7 15 23 15 35 0 35 -32 53 -82 47z m49 -38 c6 -16 -19
-44 -39 -44 -12 0 -21 28 -14 45 7 20 45 19 53 -1z"/>
<path d="M4040 3081 c-34 -33 -37 -58 -15 -101 28 -54 104 -49 126 7 19 50 -6
102 -59 118 -17 5 -29 -1 -52 -24z m74 -17 c36 -35 -2 -117 -43 -95 -46 25
-36 111 14 111 7 0 21 -7 29 -16z"/>
<path d="M2490 3092 c0 -5 13 -21 30 -37 l29 -28 -31 -36 -32 -36 24 -3 c17
-3 32 5 52 30 15 18 28 38 28 44 0 16 -64 74 -83 74 -9 0 -17 -4 -17 -8z"/>
<path d="M2700 3025 c0 -62 3 -75 16 -75 13 0 15 9 12 45 -2 25 -1 45 2 45 4
0 14 -23 24 -50 10 -28 23 -49 28 -48 6 2 20 28 32 58 l21 55 3 -57 c5 -88 22
-69 22 23 0 69 -2 80 -16 77 -10 -2 -26 -26 -37 -55 -11 -29 -23 -50 -27 -48
-4 3 -16 27 -26 55 -13 35 -23 50 -36 50 -16 0 -18 -9 -18 -75z"/>
<path d="M3060 3020 l0 -80 39 0 c55 0 91 31 91 79 0 59 -22 81 -81 81 l-49 0
0 -80z m88 48 c20 -20 15 -75 -9 -92 -35 -24 -49 -10 -49 50 0 50 2 54 23 54
13 0 28 -5 35 -12z"/>
<path d="M3600 3019 l0 -80 48 3 c53 3 60 20 10 28 -33 5 -33 5 -36 68 -4 91
-22 76 -22 -19z"/>
<path d="M3739 3025 c-19 -56 -22 -75 -13 -79 7 -3 16 3 19 13 8 27 63 33 76
9 5 -10 16 -18 23 -18 10 0 8 14 -9 58 -12 31 -25 65 -28 75 -4 9 -14 17 -24
17 -13 0 -25 -19 -44 -75z m60 -1 c1 -7 -8 -14 -19 -17 -11 -3 -20 -4 -20 -3
0 2 5 18 12 36 10 30 12 32 19 14 4 -10 8 -24 8 -30z"/>
<path d="M4295 3064 c-16 -19 -32 -37 -34 -39 -10 -12 64 -75 88 -75 l25 0
-32 33 c-18 18 -32 36 -32 40 0 3 14 22 31 42 31 34 31 35 8 34 -14 -1 -37
-16 -54 -35z"/>
<path d="M2173 2749 c-18 -12 -33 -30 -33 -40 0 -20 15 -26 25 -9 17 27 25 2
25 -80 0 -89 0 -90 25 -90 30 0 37 31 33 150 -3 76 -5 85 -23 88 -11 1 -35 -7
-52 -19z"/>
<path d="M4613 2750 c-20 -12 -33 -28 -33 -40 0 -17 3 -19 19 -10 11 5 22 10
25 10 3 0 6 -40 6 -90 0 -89 0 -90 25 -90 l25 0 0 120 c0 134 -3 139 -67 100z"/>
<path d="M4760 2469 c0 -5 5 -7 10 -4 6 3 10 8 10 11 0 2 -4 4 -10 4 -5 0 -10
-5 -10 -11z"/>
<path d="M2038 2443 c6 -2 12 -20 12 -39 0 -19 5 -34 10 -34 6 0 10 15 10 34
0 19 6 37 13 39 6 3 -4 5 -23 5 -19 0 -29 -2 -22 -5z"/>
<path d="M2104 2425 c-8 -34 15 -60 45 -50 18 5 22 13 19 38 -2 26 -8 33 -30
35 -22 3 -29 -2 -34 -23z m52 0 c4 -8 0 -22 -7 -31 -12 -14 -14 -14 -25 1 -7
9 -10 23 -7 31 7 19 32 18 39 -1z"/>
<path d="M2188 2443 c6 -2 12 -20 12 -39 0 -19 5 -34 10 -34 6 0 10 16 10 36
0 21 4 33 10 29 6 -3 10 -1 10 4 0 6 -15 11 -32 10 -18 0 -27 -3 -20 -6z"/>
<path d="M2256 2414 c-17 -36 -14 -62 4 -34 8 12 13 13 30 2 11 -7 20 -9 20
-5 0 14 -24 73 -30 73 -4 0 -14 -16 -24 -36z m34 -5 c0 -5 -4 -9 -10 -9 -5 0
-10 7 -10 16 0 8 5 12 10 9 6 -3 10 -10 10 -16z"/>
<path d="M2324 2428 c3 -13 6 -31 6 -40 0 -11 8 -18 20 -18 11 0 20 5 20 10 0
6 -7 10 -15 10 -10 0 -15 10 -15 30 0 17 -5 30 -11 30 -7 0 -9 -9 -5 -22z"/>
<path d="M4290 2430 c-15 -28 4 -62 32 -58 12 2 24 10 26 18 4 12 2 13 -9 3
-19 -15 -42 -1 -37 23 2 12 12 19 26 18 12 0 22 3 22 8 0 17 -50 7 -60 -12z"/>
<path d="M4374 2436 c-12 -31 0 -61 25 -61 31 0 50 28 35 53 -14 22 -52 28
-60 8z m44 -24 c2 -14 -2 -22 -12 -22 -19 0 -29 17 -22 36 8 22 30 12 34 -14z"/>
<path d="M4450 2411 c0 -44 19 -58 22 -16 0 14 1 30 2 37 1 6 -5 13 -11 16 -9
2 -13 -9 -13 -37z"/>
<path d="M4500 2429 c0 -11 -4 -17 -10 -14 -13 8 -13 -1 0 -26 17 -31 30 -22
30 21 0 22 -4 40 -10 40 -5 0 -10 -9 -10 -21z"/>
<path d="M4542 2438 c-28 -28 -1 -75 38 -63 27 8 26 25 -1 18 -24 -7 -43 15
-28 33 5 7 19 9 31 6 14 -3 19 -1 14 6 -9 15 -39 15 -54 0z"/>
<path d="M4612 2413 c2 -31 7 -39 26 -41 12 -2 22 1 22 7 0 6 -7 11 -15 11
-10 0 -15 10 -15 30 0 17 -5 30 -11 30 -6 0 -9 -16 -7 -37z"/>
<path d="M4676 2437 c-13 -29 10 -69 37 -65 18 2 23 10 25 41 2 20 -1 37 -7
37 -5 0 -9 -12 -8 -27 1 -18 -3 -28 -15 -31 -12 -2 -18 5 -20 30 -3 27 -6 30
-12 15z"/>
<path d="M4763 2410 c0 -25 2 -35 4 -22 2 12 2 32 0 45 -2 12 -4 2 -4 -23z"/>
<path d="M4790 2411 c0 -33 3 -41 19 -41 48 0 56 73 9 78 -27 3 -28 1 -28 -37z
m48 0 c-5 -24 -38 -27 -38 -3 0 10 3 21 6 25 11 11 35 -5 32 -22z"/>
<path d="M4876 2426 c-3 -13 -9 -32 -12 -41 -6 -15 -4 -15 15 -3 18 11 23 11
31 -2 17 -27 20 -3 5 33 -18 43 -30 47 -39 13z"/>
<path d="M4944 2439 c-4 -7 3 -19 15 -28 12 -9 19 -20 15 -24 -4 -4 -14 -1
-22 6 -13 10 -14 9 -10 -3 2 -8 15 -15 29 -15 31 0 39 34 10 42 -12 3 -21 10
-21 15 0 5 10 6 21 3 15 -5 19 -4 15 4 -9 14 -43 14 -52 0z"/>
<path d="M2937 2406 c-32 -30 -41 -63 -34 -124 9 -83 92 -121 152 -69 52 44
42 176 -14 207 -33 17 -76 11 -104 -14z m87 -38 c30 -43 14 -138 -23 -138 -27
0 -51 37 -51 80 0 39 23 80 45 80 8 0 21 -10 29 -22z"/>
<path d="M3815 2407 c-32 -27 -44 -76 -33 -137 10 -55 37 -80 88 -80 63 0 84
25 88 108 4 68 3 73 -26 102 -37 37 -80 40 -117 7z m85 -36 c14 -27 13 -114
-2 -129 -35 -35 -72 0 -72 68 0 27 6 55 13 64 18 22 48 20 61 -3z"/>
<path d="M1997 2303 c-20 -19 11 -23 202 -23 190 0 249 7 205 24 -21 8 -399 8
-407 -1z"/>
<path d="M4362 2301 c-28 -17 23 -21 289 -21 232 0 269 2 269 15 0 13 -37 15
-272 15 -150 0 -279 -4 -286 -9z"/>
<path d="M2791 2098 c-5 -13 -12 -33 -16 -46 -6 -21 -5 -22 13 -11 16 10 23
10 36 0 20 -17 21 -2 2 44 -17 41 -23 43 -35 13z"/>
<path d="M2884 2106 c-3 -8 -4 -29 -1 -48 3 -29 5 -30 12 -11 4 12 14 24 24
26 14 4 14 5 -1 6 -22 1 -24 21 -3 21 8 0 15 5 15 10 0 15 -40 12 -46 -4z"/>
<path d="M2947 2078 c-9 -23 -14 -44 -11 -47 4 -3 9 0 11 7 3 6 13 12 23 12
10 0 21 -6 23 -12 4 -9 6 -7 6 3 1 22 -19 79 -28 79 -5 0 -15 -19 -24 -42z"/>
<path d="M3025 2110 c-3 -6 4 -10 16 -10 l22 0 -21 -23 c-29 -31 -28 -47 3
-47 14 0 25 5 25 10 0 6 -7 10 -17 10 -15 0 -15 1 0 18 23 25 22 52 -2 52 -11
0 -23 -4 -26 -10z"/>
<path d="M3440 2074 c0 -40 2 -44 25 -44 14 0 25 5 25 10 0 6 -7 10 -15 10
-21 0 -19 18 3 23 16 4 16 5 0 6 -10 0 -18 5 -18 10 0 5 8 11 18 13 12 3 9 6
-10 10 -27 5 -28 4 -28 -38z"/>
<path d="M3512 2075 c0 -41 2 -45 7 -20 6 28 7 28 13 8 3 -13 11 -23 16 -23 6
0 14 10 18 23 8 21 8 21 15 -8 6 -27 7 -26 8 13 1 44 -13 57 -24 22 -6 -19
-25 -28 -25 -12 0 5 -7 17 -15 28 -13 17 -14 15 -13 -31z"/>
<path d="M4090 2105 c-13 -16 -6 -35 15 -35 8 0 17 -5 21 -11 5 -9 -1 -10 -20
-5 -30 7 -36 -9 -6 -19 42 -13 55 22 18 49 l-23 17 23 -6 c25 -7 31 10 6 19
-21 8 -20 8 -34 -9z"/>
<path d="M4160 2105 c-13 -16 -6 -35 15 -35 8 0 17 -5 21 -11 5 -8 -1 -10 -20
-7 -31 6 -35 -8 -6 -17 28 -9 54 13 39 31 -6 8 -18 14 -25 14 -8 0 -14 5 -14
11 0 6 9 8 20 4 24 -7 27 10 4 19 -21 8 -20 8 -34 -9z"/>
<path d="M4236 2098 c-26 -36 16 -86 49 -58 19 16 19 44 -1 64 -21 21 -30 20
-48 -6z m44 -23 c0 -25 -23 -35 -35 -15 -10 16 2 40 20 40 9 0 15 -9 15 -25z"/>
<path d="M3090 2070 c0 -36 3 -40 25 -40 31 0 33 17 3 23 -23 4 -23 4 2 15 24
10 24 11 3 11 -13 1 -23 5 -23 10 0 5 10 12 23 14 19 4 18 4 -5 6 -26 1 -28
-2 -28 -39z"/>
<path d="M3161 2068 c1 -24 3 -35 6 -25 5 21 22 22 29 2 4 -8 10 -15 16 -15 5
0 6 5 2 12 -5 7 -7 25 -6 40 2 24 -1 28 -23 28 -23 0 -25 -3 -24 -42z m39 22
c0 -5 -7 -10 -15 -10 -8 0 -15 5 -15 10 0 6 7 10 15 10 8 0 15 -4 15 -10z"/>
<path d="M3630 2076 c0 -19 5 -38 10 -41 6 -3 10 0 10 8 0 8 9 17 20 20 12 3
20 14 20 26 0 17 -6 21 -30 21 -28 0 -30 -3 -30 -34z m50 14 c0 -5 -7 -10 -15
-10 -8 0 -15 5 -15 10 0 6 7 10 15 10 8 0 15 -4 15 -10z"/>
<path d="M3708 2074 c-2 -19 0 -37 4 -40 4 -3 8 2 8 10 0 20 9 20 32 -1 10 -9
18 -11 18 -5 0 6 -5 14 -10 17 -8 5 -7 11 0 20 16 19 4 35 -24 35 -20 0 -25
-6 -28 -36z m42 16 c0 -5 -7 -10 -15 -10 -8 0 -15 5 -15 10 0 6 7 10 15 10 8
0 15 -4 15 -10z"/>
<path d="M3787 2104 c-13 -13 -7 -51 9 -65 23 -19 49 1 49 37 0 24 -5 30 -25
32 -14 2 -29 0 -33 -4z m47 -20 c7 -19 -1 -34 -19 -34 -18 0 -28 17 -21 35 7
20 32 19 40 -1z"/>
<path d="M3872 2098 c-28 -28 -1 -75 38 -63 27 8 27 45 0 45 -25 0 -26 -17 -2
-23 12 -3 11 -5 -6 -6 -19 -1 -23 3 -20 22 2 16 9 21 26 20 13 -2 21 1 17 7
-8 14 -38 13 -53 -2z"/>
<path d="M3951 2068 c1 -24 3 -35 6 -25 5 21 22 22 29 2 4 -8 10 -15 15 -15 6
0 6 8 0 18 -7 13 -7 22 1 30 15 15 1 32 -28 32 -22 0 -24 -4 -23 -42z m39 22
c0 -5 -7 -10 -15 -10 -8 0 -15 5 -15 10 0 6 7 10 15 10 8 0 15 -4 15 -10z"/>
<path d="M4020 2070 c0 -36 3 -40 25 -40 31 0 33 17 3 23 -23 4 -23 5 2 13
l25 8 -25 7 -25 6 25 11 25 11 -27 0 c-26 1 -28 -2 -28 -39z"/>
<path d="M2433 6118 c2 -15 -1 -29 -6 -31 -12 -4 0 -27 14 -27 11 0 11 39 -2
65 -8 17 -9 16 -6 -7z"/>
<path d="M2485 6130 c-16 -7 -17 -9 -3 -9 9 -1 20 4 23 9 7 11 7 11 -20 0z"/>
<path d="M4393 6114 c-12 -19 -14 -30 -6 -43 13 -20 55 -21 61 -1 4 13 3 13
-11 2 -9 -8 -21 -11 -27 -7 -15 9 -12 41 6 56 14 11 18 10 30 -6 8 -10 14 -14
14 -9 0 14 -22 34 -37 34 -7 0 -20 -12 -30 -26z"/>
<path d="M2386 6121 c-4 -6 -4 -23 -1 -38 l6 -28 -25 30 c-34 39 -33 22 0 -23
20 -26 29 -31 35 -21 4 8 5 25 2 38 -4 17 -2 22 6 17 16 -10 14 9 -3 23 -9 8
-16 8 -20 2z"/>
<path d="M4345 6090 c3 -5 8 -10 11 -10 2 0 4 5 4 10 0 6 -5 10 -11 10 -5 0
-7 -4 -4 -10z"/>
<path d="M4468 6075 c-8 -19 -8 -28 2 -40 25 -31 70 -11 70 31 0 40 -55 47
-72 9z m57 -9 c0 -25 -30 -45 -46 -29 -8 8 -8 17 1 33 14 25 45 23 45 -4z"/>
<path d="M2288 6079 c-24 -13 -23 -44 3 -70 20 -20 21 -20 40 -3 24 22 21 52
-6 70 -14 9 -25 10 -37 3z m45 -54 c-8 -21 -31 -18 -43 6 -9 15 -8 24 1 36 12
13 15 13 31 -6 9 -12 14 -29 11 -36z"/>
<path d="M2182 6058 c-19 -19 -14 -40 18 -78 33 -38 40 -34 13 7 -13 19 -14
28 -5 31 6 2 12 8 12 14 0 5 -9 6 -21 3 -18 -6 -20 -5 -10 14 13 24 11 27 -7
9z"/>
<path d="M4550 6030 c-7 -17 -10 -33 -8 -36 3 -2 11 9 18 26 8 20 18 29 27 26
8 -4 17 -6 19 -6 3 0 -3 -14 -11 -31 -9 -17 -14 -33 -11 -36 2 -3 12 9 21 27
28 54 47 28 31 -40 -5 -20 -4 -19 10 7 21 40 14 59 -32 78 -48 20 -50 20 -64
-15z"/>
<path d="M2230 6045 c1 -16 39 -82 40 -68 0 7 -9 27 -20 45 -11 18 -20 29 -20
23z"/>
<path d="M2090 5998 c0 -4 14 -29 31 -55 18 -28 29 -38 26 -25 -6 24 4 28 34
12 10 -6 19 -7 19 -2 0 5 -13 15 -30 22 -16 7 -30 17 -30 22 0 5 -5 6 -11 3
-6 -4 -17 1 -24 11 -8 11 -15 16 -15 12z"/>
<path d="M4720 5945 c-23 -25 -21 -38 11 -55 13 -7 19 -7 19 0 0 5 -7 10 -15
10 -16 0 -19 9 -9 34 8 22 41 20 47 -1 4 -17 5 -17 6 -1 0 10 -7 22 -18 27
-14 8 -23 5 -41 -14z"/>
<path d="M2051 5941 c-23 -15 3 -49 34 -44 15 3 25 1 25 -6 0 -11 -13 -15 -40
-11 -12 1 -13 -1 -2 -11 16 -17 47 0 47 27 0 15 -6 18 -27 16 -30 -3 -36 6
-16 26 14 14 0 16 -21 3z"/>
<path d="M4792 5907 c-28 -30 -28 -41 4 -62 26 -17 27 -17 50 11 33 41 30 53
-6 19 -25 -24 -32 -26 -45 -15 -14 12 -13 15 6 36 12 13 20 26 17 29 -2 3 -14
-5 -26 -18z"/>
<path d="M1980 5885 c-7 -9 -8 -15 -2 -15 6 0 12 6 15 13 4 9 7 9 17 0 11 -10
10 -14 -3 -19 -21 -8 -22 -28 -1 -44 12 -11 18 -10 32 3 15 16 15 19 0 45 -20
32 -40 39 -58 17z m58 -43 c2 -7 -6 -12 -17 -12 -21 0 -27 11 -14 24 9 9 26 2
31 -12z"/>
<path d="M1920 5840 c13 -19 30 -40 38 -47 16 -13 32 -9 32 8 0 6 -5 7 -11 4
-5 -4 -19 1 -30 11 -15 14 -17 20 -6 32 10 13 9 15 -4 10 -9 -4 -22 -1 -29 5
-7 7 -3 -4 10 -23z"/>
<path d="M4870 5845 c-13 -14 -21 -28 -18 -31 4 -3 14 6 24 21 10 15 23 24 31
21 8 -3 11 -1 8 4 -10 15 -20 12 -45 -15z"/>
<path d="M4910 5809 c-12 -16 -20 -33 -17 -35 3 -3 13 6 23 20 12 19 22 25 35
21 25 -8 24 1 0 15 -16 8 -23 5 -41 -21z"/>
<path d="M4961 5781 c-26 -26 -26 -33 -1 -56 11 -10 20 -15 20 -10 0 4 -8 14
-17 21 -17 12 -17 14 -1 30 17 17 48 13 48 -6 0 -7 -8 -9 -21 -5 -15 5 -19 4
-15 -4 8 -13 42 -15 50 -3 6 9 -2 22 -26 40 -14 11 -20 10 -37 -7z"/>
<path d="M5019 5713 l-24 -28 26 23 c44 39 78 19 38 -24 -12 -13 -20 -26 -17
-30 3 -3 16 9 28 26 18 25 19 34 10 45 -18 22 -33 18 -61 -12z"/>
<path d="M5105 5673 c-25 -28 -34 -63 -15 -63 5 0 7 6 5 13 -6 15 21 51 32 44
5 -3 9 3 9 14 0 24 0 24 -31 -8z"/>
<path d="M5205 5613 c3 -10 -5 -28 -22 -47 -17 -19 -11 -15 15 9 23 21 42 40
42 41 0 1 -9 4 -21 7 -16 4 -19 2 -14 -10z"/>
<path d="M5268 5554 c34 -24 26 -34 -28 -34 -27 0 -50 -4 -50 -8 0 -12 34 -42
46 -42 5 0 1 5 -8 11 -30 17 -20 29 22 29 27 0 43 5 46 15 8 19 -13 45 -34 45
-12 0 -11 -4 6 -16z"/>
<path d="M5293 5467 c-29 -12 -53 -25 -53 -30 0 -4 17 0 38 9 20 9 45 18 55
21 9 3 17 9 17 14 0 5 -1 9 -2 8 -2 -1 -27 -11 -55 -22z"/>
<path d="M5350 5450 c0 -5 7 -10 15 -10 16 0 21 -25 7 -34 -5 -3 -25 -6 -45
-8 -30 -2 -34 -4 -26 -19 11 -21 29 -34 29 -22 0 5 -5 14 -12 21 -9 9 -4 12
23 12 32 0 59 14 59 31 0 11 -30 39 -41 39 -5 0 -9 -4 -9 -10z"/>
<path d="M5376 5349 c-30 -36 -31 -42 -11 -59 13 -11 22 -10 50 3 41 20 55 55
29 74 -27 19 -40 16 -68 -18z m61 5 c3 -9 -3 -24 -15 -36 -12 -12 -27 -18 -36
-15 -21 8 -20 23 4 47 24 24 39 25 47 4z"/>
<path d="M1410 5338 c0 -6 3 -8 7 -5 3 4 22 -3 42 -14 l36 -21 -28 26 c-29 27
-57 34 -57 14z"/>
<path d="M1381 5296 c-20 -21 -20 -23 -4 -37 43 -36 56 -41 29 -12 -43 47 -15
75 31 31 13 -12 23 -17 22 -12 0 5 -13 19 -28 31 l-28 22 -22 -23z"/>
<path d="M5470 5290 c0 -5 7 -10 15 -10 8 0 15 -9 15 -20 0 -19 -4 -20 -52
-14 l-53 7 16 -23 c9 -13 22 -26 30 -28 8 -2 6 2 -3 8 -31 19 -21 32 20 25 46
-7 64 8 51 43 -8 22 -39 31 -39 12z"/>
<path d="M1332 5228 c-20 -20 -14 -46 14 -65 25 -16 27 -16 40 2 18 24 18 40
-2 59 -19 19 -36 20 -52 4z m58 -31 c0 -23 -22 -37 -42 -26 -20 11 -24 45 -5
52 17 6 47 -11 47 -26z"/>
<path d="M5507 5208 c-35 -12 -48 -55 -23 -74 33 -24 65 13 44 50 -7 13 -5 16
12 16 17 0 20 -4 15 -21 -5 -15 -4 -19 4 -15 6 4 11 14 11 21 0 22 -31 34 -63
23z m11 -46 c2 -14 -2 -22 -12 -22 -19 0 -29 17 -22 36 8 22 30 12 34 -14z"/>
<path d="M1279 5138 c-10 -18 -8 -24 11 -40 12 -10 26 -18 31 -18 9 0 39 40
39 52 0 17 -18 7 -23 -12 -6 -23 -29 -26 -46 -6 -10 11 -7 17 11 30 18 13 19
16 6 16 -10 0 -23 -10 -29 -22z"/>
<path d="M5577 5085 c-4 -8 -13 -15 -22 -15 -8 0 -15 -8 -14 -17 0 -11 3 -13
6 -5 2 6 9 12 14 12 14 0 11 -28 -3 -33 -8 -4 -7 -6 3 -6 9 -1 19 6 23 14 3 8
13 15 21 15 11 0 15 7 13 22 -4 27 -33 36 -41 13z m30 -21 c-9 -9 -28 6 -21
18 4 6 10 6 17 -1 6 -6 8 -13 4 -17z"/>
<path d="M1216 5043 c-11 -12 -6 -23 11 -23 9 0 25 -7 35 -17 10 -9 20 -14 23
-11 3 3 -10 17 -28 31 -19 14 -37 23 -41 20z"/>
<path d="M5605 5008 c-38 -20 -39 -21 -19 -37 11 -9 19 -23 16 -31 -4 -12 -2
-13 9 -3 10 10 9 16 -4 31 -18 19 -14 32 10 32 7 0 13 -7 13 -17 0 -9 2 -14 5
-11 6 6 17 58 13 58 -2 -1 -21 -10 -43 -22z"/>
<path d="M1184 4978 c-5 -16 -1 -27 16 -40 27 -22 34 -22 54 -2 18 18 21 34 6
34 -5 0 -10 -7 -10 -15 0 -8 -4 -15 -10 -15 -5 0 -7 7 -4 15 7 18 -12 45 -32
45 -7 0 -16 -10 -20 -22z m41 2 c3 -5 2 -17 -3 -26 -8 -14 -10 -14 -21 0 -13
15 -8 36 9 36 5 0 12 -4 15 -10z"/>
<path d="M1154 4916 c27 -12 28 -13 6 -19 -30 -8 -23 -39 12 -51 30 -11 58 5
58 33 0 18 -59 52 -88 50 -11 0 -7 -5 12 -13z m66 -36 c0 -17 -26 -27 -47 -19
-13 5 -23 11 -23 14 0 3 10 9 23 14 23 9 47 4 47 -9z"/>
<path d="M5664 4900 c-7 -31 -24 -42 -24 -15 0 8 -4 15 -9 15 -14 0 -1 -38 15
-44 15 -6 26 8 28 35 1 11 6 18 11 17 6 -2 9 -9 9 -15 -1 -7 2 -13 7 -13 13 0
11 24 -3 38 -19 19 -28 14 -34 -18z"/>
<path d="M5688 4839 c-21 -11 -38 -24 -38 -30 0 -6 13 -1 29 10 34 25 41 26
41 7 0 -8 4 -17 9 -20 4 -3 8 8 7 24 -1 35 0 35 -48 9z"/>
<path d="M1112 4818 c-19 -19 -14 -34 13 -46 40 -18 54 -13 18 6 -23 12 -30
21 -24 31 8 13 19 13 66 -4 13 -4 12 -1 -5 9 -30 19 -52 20 -68 4z"/>
<path d="M5676 4775 c4 -8 10 -12 15 -9 14 8 10 24 -6 24 -9 0 -12 -6 -9 -15z"/>
<path d="M5732 4768 c-7 -7 -12 -18 -12 -26 0 -12 -3 -12 -15 -2 -9 7 -18 10
-22 6 -4 -3 2 -12 12 -20 10 -7 15 -18 11 -24 -4 -7 -2 -12 3 -12 6 0 11 5 11
10 0 6 9 10 19 10 26 0 34 15 27 46 -7 27 -16 30 -34 12z m25 -34 c-9 -9 -28
6 -21 18 4 6 10 6 17 -1 6 -6 8 -13 4 -17z"/>
<path d="M1075 4730 c-13 -42 47 -69 75 -34 11 12 10 18 -3 31 -15 16 -18 15
-42 -7 -20 -19 -25 -20 -25 -7 0 9 8 21 18 26 15 9 16 10 0 11 -9 0 -20 -9
-23 -20z m68 -25 c-5 -16 -33 -21 -33 -7 0 13 22 32 31 26 5 -2 6 -11 2 -19z"/>
<path d="M5760 4675 c-25 -13 -40 -24 -35 -24 6 0 30 11 55 24 25 13 41 24 35
24 -5 0 -30 -11 -55 -24z"/>
<path d="M1046 4664 c-4 -11 5 -19 30 -30 20 -8 41 -13 47 -11 7 2 -5 9 -26
16 -26 9 -37 18 -33 27 3 8 1 14 -3 14 -5 0 -12 -7 -15 -16z"/>
<path d="M5777 4644 c-4 -4 -4 -18 -1 -30 4 -17 2 -24 -8 -24 -22 0 -28 11
-17 31 5 11 6 19 1 19 -13 0 -23 -43 -13 -53 18 -18 46 -2 46 26 -1 15 4 26
10 24 5 -2 10 -14 9 -26 0 -11 3 -21 8 -21 9 0 11 22 2 44 -6 16 -25 21 -37
10z"/>
<path d="M1021 4580 c-6 -20 -7 -28 0 -24 5 3 21 -2 35 -11 14 -9 28 -15 30
-12 3 2 -7 12 -21 21 -32 21 -34 50 -2 40 45 -14 51 -14 22 0 -43 22 -52 20
-64 -14z"/>
<path d="M1006 4508 c-15 -21 -14 -24 3 -42 14 -13 27 -17 45 -12 31 8 34 35
8 59 -25 23 -38 21 -56 -5z m64 -23 c0 -19 -16 -27 -40 -20 -22 7 -27 41 -7
48 17 6 47 -11 47 -28z"/>
<path d="M5815 4430 c-15 -16 -17 -26 -9 -47 5 -14 15 -28 22 -31 11 -3 10 2
-2 20 -31 48 17 89 57 50 17 -18 18 -23 7 -37 -7 -8 -10 -18 -7 -22 4 -3 12 6
18 21 24 52 -47 89 -86 46z"/>
<path d="M953 4395 c-10 -7 -15 -17 -10 -21 4 -4 7 -2 7 4 0 14 36 16 44 3 3
-4 -1 -16 -8 -27 -12 -16 -16 -17 -32 -4 -15 13 -17 13 -12 0 8 -27 47 -24 60
4 13 30 23 33 32 11 3 -9 -1 -18 -10 -22 -9 -3 -19 -16 -24 -27 -7 -18 -14
-21 -44 -18 -45 5 -46 -8 -2 -42 43 -33 56 -33 56 0 0 14 4 23 10 19 6 -3 10
-1 10 4 0 6 -4 11 -10 11 -17 0 -11 25 10 38 35 22 22 57 -28 71 -22 7 -36 5
-49 -4z m41 -130 c7 -19 -5 -19 -30 0 -19 14 -19 14 2 15 12 0 24 -7 28 -15z"/>
<path d="M5843 4330 c-17 -7 -22 -16 -20 -40 2 -35 0 -34 52 -15 l40 15 -40
-2 c-30 -2 -40 1 -40 12 0 9 11 16 28 18 15 2 27 8 27 13 0 11 -18 11 -47 -1z"/>
<path d="M5863 4253 c-13 -2 -23 -8 -23 -13 0 -4 9 -6 20 -3 11 3 27 2 36 -1
24 -9 -1 -36 -35 -37 -21 -1 -20 -3 9 -8 41 -7 45 -26 10 -44 -28 -14 -35 -57
-10 -65 13 -5 13 -3 1 11 -7 9 -11 24 -7 32 8 21 25 19 19 -3 -5 -21 21 -47
37 -37 12 8 13 42 1 49 -4 3 -6 16 -4 30 3 13 0 27 -7 31 -8 5 -8 10 1 21 9
11 9 17 -1 29 -7 8 -15 14 -19 14 -3 -1 -16 -4 -28 -6z m49 -155 c-9 -9 -12
-7 -12 12 0 19 3 21 12 12 9 -9 9 -15 0 -24z"/>
<path d="M939 4209 c0 -2 -3 -18 -5 -35 -4 -28 -2 -32 27 -38 37 -7 49 -1 49
25 0 10 6 19 14 19 8 0 18 4 21 10 3 6 -4 9 -17 9 -13 -1 -38 2 -55 6 -18 4
-33 6 -34 4z m61 -39 c0 -15 -7 -20 -24 -20 -14 0 -28 5 -31 10 -10 16 4 30
31 30 17 0 24 -5 24 -20z"/>
<path d="M924 4106 c-3 -8 -4 -23 -1 -33 3 -12 5 -8 6 10 1 35 12 34 34 -3 23
-37 37 -38 36 -2 0 22 -2 23 -8 8 -7 -17 -9 -16 -24 8 -19 29 -35 33 -43 12z"/>
<path d="M5916 4062 c-4 -7 -22 -13 -39 -13 -29 -2 -29 -2 8 -8 50 -8 55 -35
8 -39 -18 -2 -33 -7 -33 -12 0 -10 60 -2 73 10 5 4 4 22 0 41 -6 21 -12 29
-17 21z"/>
<path d="M950 4005 c7 -9 15 -13 17 -11 7 7 -7 26 -19 26 -6 0 -6 -6 2 -15z"/>
<path d="M880 3953 c0 -14 20 -39 20 -25 0 8 18 12 53 13 44 1 48 2 22 9 -40
10 -95 12 -95 3z"/>
<path d="M5866 3905 c-10 -27 4 -43 35 -41 37 2 56 28 34 46 -11 9 -18 9 -30
-3 -8 -9 -15 -21 -15 -28 0 -10 -3 -10 -12 -1 -8 8 -8 15 2 27 7 8 8 15 2 15
-5 0 -12 -7 -16 -15z m60 -21 c-4 -9 -9 -15 -11 -12 -3 3 -3 13 1 22 4 9 9 15
11 12 3 -3 3 -13 -1 -22z"/>
<path d="M893 3883 c10 -3 17 -14 17 -29 0 -28 19 -39 55 -30 20 5 25 13 25
36 0 30 0 30 -57 29 -32 -1 -50 -3 -40 -6z m87 -22 c0 -20 -32 -37 -50 -26 -5
3 -10 15 -10 26 0 14 7 19 30 19 23 0 30 -5 30 -19z"/>
<path d="M5889 3831 c40 -7 55 -31 19 -31 -12 0 -30 -5 -38 -10 -11 -7 -5 -10
23 -10 25 0 37 -5 37 -14 0 -8 -17 -18 -37 -24 l-38 -10 32 -1 c38 -1 69 25
53 44 -8 9 -8 15 0 20 7 4 7 12 0 26 -8 14 -20 19 -48 18 l-37 -2 34 -6z"/>
<path d="M922 3788 c-7 -7 -12 -16 -12 -22 0 -6 5 -5 12 2 7 7 26 12 43 12 23
0 26 3 15 10 -20 13 -44 12 -58 -2z"/>
<path d="M910 3740 c0 -5 18 -10 40 -10 22 0 40 5 40 10 0 6 -18 10 -40 10
-22 0 -40 -4 -40 -10z"/>
<path d="M914 3685 c-10 -25 16 -46 50 -43 33 3 47 31 26 52 -9 8 -11 6 -5
-11 8 -28 -6 -30 -23 -3 -14 24 -40 26 -48 5z m35 -9 c8 -10 9 -16 1 -21 -13
-8 -30 3 -30 21 0 18 14 18 29 0z"/>
<path d="M5943 3658 c5 -14 -2 -18 -46 -21 -51 -3 -51 -3 12 -5 59 -2 63 -1
50 16 -21 27 -23 28 -16 10z"/>
<path d="M930 3606 c0 -4 -7 -6 -15 -2 -9 3 -15 0 -15 -9 0 -18 0 -18 56 -4
53 14 57 24 9 24 -19 0 -35 -4 -35 -9z"/>
<path d="M5851 3563 c2 -24 2 -25 6 -5 6 29 17 28 31 -3 8 -17 20 -25 37 -25
32 0 43 26 21 48 -9 9 -16 11 -16 5 0 -6 5 -13 12 -15 15 -5 1 -28 -16 -28 -8
0 -21 11 -30 25 -22 34 -46 33 -45 -2z"/>
<path d="M943 3548 c-25 -12 -27 -17 -15 -34 8 -13 82 -24 82 -13 0 4 -17 9
-37 11 -45 4 -45 19 0 35 21 7 25 12 12 12 -11 0 -30 -5 -42 -11z"/>
<path d="M5846 3501 c-8 -13 4 -41 17 -41 7 0 7 4 -1 12 -7 7 -12 16 -12 20 0
17 28 6 55 -22 15 -16 32 -27 37 -24 10 7 -59 64 -78 64 -7 0 -15 -4 -18 -9z"/>
<path d="M947 3463 c-4 -3 -7 -11 -7 -17 0 -6 4 -5 9 2 11 18 55 11 59 -9 4
-21 -37 -32 -57 -16 -11 10 -13 9 -9 -3 11 -35 78 -18 78 20 0 25 -55 42 -73
23z"/>
<path d="M5820 3431 c0 -9 110 -54 116 -48 2 2 -23 15 -56 30 -33 14 -60 22
-60 18z"/>
<path d="M944 3358 c-3 -5 15 -8 40 -8 25 0 46 4 46 8 0 10 -80 10 -86 0z"/>
<path d="M5816 3348 c-10 -38 -6 -45 9 -18 17 29 18 40 6 40 -5 0 -11 -10 -15
-22z"/>
<path d="M5898 3348 c7 -7 12 -18 12 -25 0 -21 -36 -15 -54 10 -9 12 -15 16
-13 8 2 -8 15 -24 30 -35 25 -18 29 -19 43 -4 13 12 14 20 5 37 -7 11 -17 21
-23 21 -9 0 -9 -3 0 -12z"/>
<path d="M941 3312 l-23 -4 25 -13 c21 -11 33 -11 61 -1 20 7 38 14 40 17 5 5
-67 6 -103 1z"/>
<path d="M5805 3270 c-18 -20 -18 -21 2 -41 11 -12 35 -21 54 -22 30 -2 34 1
37 25 3 21 -3 30 -27 42 -39 20 -44 20 -66 -4z m59 -10 c28 -10 35 -35 12 -43
-19 -8 -60 15 -64 36 -4 19 14 22 52 7z"/>
<path d="M1010 3248 c0 -9 5 -20 10 -23 13 -8 13 5 0 25 -8 13 -10 13 -10 -2z"/>
<path d="M996 3188 c3 -4 15 -8 26 -8 21 0 21 0 -2 -25 l-23 -25 39 -1 c38 -1
38 -1 12 -11 -16 -5 -28 -14 -28 -18 0 -5 14 -3 31 4 17 7 30 16 30 19 -1 4
-1 12 -1 18 0 7 -12 8 -32 4 l-33 -6 33 21 c17 12 32 25 32 28 0 4 -20 7 -45
8 -24 0 -42 -3 -39 -8z"/>
<path d="M5780 3197 c0 -1 -4 -17 -9 -35 -6 -20 -6 -32 0 -32 5 0 9 9 9 19 0
11 5 23 10 26 6 3 10 1 10 -5 0 -6 11 -22 24 -35 29 -29 56 -24 56 10 0 25
-17 42 -28 30 -4 -4 -1 -10 6 -12 17 -7 15 -33 -3 -33 -9 0 -25 16 -36 35 -12
19 -25 35 -30 35 -5 0 -9 -1 -9 -3z"/>
<path d="M5762 3098 c-15 -15 -16 -55 -1 -64 6 -3 16 -1 22 5 8 8 15 7 28 -5
15 -13 18 -13 33 1 21 21 20 31 -4 55 -22 22 -60 26 -78 8z m38 -7 c0 -21 -13
-41 -26 -41 -14 0 -19 31 -7 43 10 10 33 8 33 -2z m35 -24 c0 -26 -20 -25 -23
2 -3 16 1 22 10 19 7 -3 13 -12 13 -21z"/>
<path d="M1045 3070 c-15 -16 -15 -22 -5 -35 15 -18 51 -20 68 -3 16 16 15 23
-4 42 -21 21 -37 20 -59 -4z m55 -15 c0 -9 -7 -18 -16 -22 -18 -7 -39 11 -30
26 11 17 46 13 46 -4z"/>
<path d="M1068 2987 c-21 -6 -38 -14 -38 -19 0 -10 41 -1 85 18 37 16 8 16
-47 1z"/>
<path d="M5700 2960 c-7 -17 -10 -33 -7 -36 3 -3 8 4 12 15 9 28 17 26 37 -9
18 -32 52 -40 62 -14 3 9 2 23 -4 32 -8 14 -9 12 -10 -10 0 -39 -15 -35 -45
12 -14 22 -27 40 -29 40 -2 0 -9 -14 -16 -30z"/>
<path d="M1121 2944 c-28 -12 -36 -12 -44 -2 -6 9 -7 8 -3 -4 6 -19 -18 -26
-27 -8 -3 6 -4 5 -3 -2 1 -7 10 -14 19 -16 19 -4 96 29 97 41 0 9 2 9 -39 -9z"/>
<path d="M1150 2885 c-7 -9 -21 -13 -31 -10 -21 7 -26 -9 -8 -21 8 -4 3 -12
-12 -21 l-24 -14 25 6 c50 13 90 29 90 37 0 4 -12 3 -26 -2 -37 -14 -43 -11
-11 6 15 8 27 19 27 24 0 15 -16 12 -30 -5z"/>
<path d="M5686 2885 c-23 -23 -20 -42 9 -61 34 -22 75 -12 75 20 0 41 -56 68
-84 41z m62 -18 c6 -5 12 -15 12 -22 0 -21 -39 -24 -62 -5 -19 15 -20 20 -9
33 12 16 34 13 59 -6z"/>
<path d="M1205 2813 c7 -27 -2 -29 -25 -8 -13 12 -20 13 -34 2 -11 -8 -15 -19
-10 -30 7 -18 39 -23 49 -7 3 5 12 7 20 3 18 -6 20 24 4 47 -8 12 -9 10 -4 -7z
m-35 -28 c0 -8 -4 -15 -10 -15 -5 0 -10 7 -10 15 0 8 5 15 10 15 6 0 10 -7 10
-15z"/>
<path d="M5695 2780 c3 -5 10 -10 16 -10 5 0 9 5 9 10 0 6 -7 10 -16 10 -8 0
-12 -4 -9 -10z"/>
<path d="M5616 2748 c-18 -25 -14 -33 25 -54 33 -16 64 -12 73 11 9 24 -4 43
-36 54 -42 15 -45 14 -62 -11z m53 1 c38 -13 44 -49 8 -49 -33 0 -62 23 -54
44 8 19 6 19 46 5z"/>
<path d="M1204 2745 c-4 -8 -10 -13 -14 -10 -4 3 -12 -1 -18 -8 -7 -8 -6 -18
5 -32 15 -20 15 -20 8 3 -8 26 2 28 26 6 20 -18 39 -11 39 15 0 18 -18 41 -32
41 -5 0 -11 -7 -14 -15z m36 -21 c0 -9 -5 -14 -12 -12 -18 6 -21 28 -4 28 9 0
16 -7 16 -16z"/>
<path d="M1262 2684 c2 -13 -6 -22 -29 -29 -42 -14 -50 -23 -28 -31 9 -4 20
-2 24 3 3 6 16 15 29 22 23 12 29 35 11 46 -6 4 -9 0 -7 -11z"/>
<path d="M5572 2678 c-17 -17 -15 -31 10 -52 21 -18 22 -18 39 3 17 21 39 28
39 13 0 -4 -5 -13 -12 -20 -6 -6 -9 -14 -6 -18 4 -3 12 4 18 16 9 16 9 25 0
36 -7 7 -16 11 -21 8 -5 -3 -16 2 -25 10 -19 19 -26 20 -42 4z m40 -40 c-17
-17 -47 9 -30 29 10 12 13 12 27 -1 11 -12 12 -19 3 -28z"/>
<path d="M5569 2125 c-1 -3 -2 -9 -3 -15 0 -5 -10 -17 -21 -26 -19 -15 -19
-16 4 -2 13 8 25 22 27 31 2 15 -4 25 -7 12z"/>
<path d="M1913 1888 c-26 -36 -36 -69 -25 -80 8 -8 9 -5 5 10 -4 17 1 24 21
32 16 6 26 17 26 30 0 23 -13 26 -27 8z"/>
<path d="M4890 1852 l-34 -29 22 -34 c25 -39 29 -32 7 11 -22 42 1 52 32 14
25 -31 32 -22 8 10 -31 41 -7 50 33 14 26 -23 21 -8 -6 25 -20 22 -22 22 -62
-11z"/>
<path d="M5330 1845 c-7 -8 -16 -13 -20 -10 -10 6 -33 -22 -36 -42 -2 -9 15 1
37 23 21 21 39 39 39 41 0 7 -8 2 -20 -12z m-20 -19 c0 -2 -8 -10 -17 -17 -16
-13 -17 -12 -4 4 13 16 21 21 21 13z"/>
<path d="M1975 1830 c10 -11 20 -18 23 -15 7 6 -18 35 -31 35 -5 0 -2 -9 8
-20z"/>
<path d="M1927 1813 c-15 -14 -6 -42 15 -49 31 -9 55 23 30 42 -19 15 -35 17
-45 7z m43 -24 c0 -5 -9 -9 -20 -9 -19 0 -26 11 -14 23 8 8 34 -3 34 -14z"/>
<path d="M2010 1787 c0 -7 6 -19 12 -25 10 -10 10 -15 -2 -22 -11 -7 -17 -4
-22 8 -5 14 -7 12 -7 -6 -1 -20 3 -23 26 -20 19 2 30 12 40 36 8 19 9 32 3 32
-5 0 -10 -7 -10 -16 0 -14 -3 -14 -15 -4 -13 11 -13 15 -3 21 10 7 9 9 -4 9
-10 0 -18 -6 -18 -13z"/>
<path d="M4796 1784 c-9 -24 -8 -31 10 -48 22 -22 51 -20 59 5 13 40 -54 82
-69 43z m55 -15 c7 -14 8 -24 1 -31 -17 -17 -42 -1 -42 27 0 31 25 34 41 4z"/>
<path d="M2080 1746 c-13 -25 -21 -48 -17 -52 4 -4 7 -1 8 7 0 8 7 1 14 -16
l14 -30 1 32 c0 25 5 33 23 36 19 4 18 4 -5 6 -30 1 -35 10 -17 28 6 6 10 16
8 22 -2 6 -15 -9 -29 -33z"/>
<path d="M4722 1740 c-12 -11 -26 -20 -31 -20 -20 0 -22 -21 -4 -50 9 -16 21
-30 26 -30 5 0 2 11 -7 25 -20 31 -20 45 -1 45 9 0 21 -11 27 -25 6 -14 15
-25 20 -25 5 0 2 13 -7 30 -8 16 -15 34 -15 40 0 20 29 10 48 -17 11 -16 23
-26 26 -23 6 7 -42 70 -53 70 -4 0 -17 -9 -29 -20z"/>
<path d="M2146 1694 c-34 -61 -33 -67 5 -21 41 50 69 51 39 2 -12 -19 -20 -41
-17 -48 2 -6 15 10 28 36 23 48 23 49 5 63 -29 20 -32 19 -60 -32z"/>
<path d="M4645 1684 c4 -10 10 -29 12 -41 7 -32 -24 -30 -39 2 -6 14 -15 25
-21 25 -11 0 24 -62 38 -67 6 -2 19 3 30 11 17 12 17 17 5 45 -7 17 -17 34
-23 38 -7 4 -8 0 -2 -13z"/>
<path d="M5139 1673 c-13 -16 -12 -17 4 -4 16 13 21 21 13 21 -2 0 -10 -8 -17
-17z"/>
<path d="M2228 1659 c-40 -23 -10 -91 30 -70 29 15 35 41 16 62 -19 22 -23 22
-46 8z m40 -31 c-4 -30 -48 -39 -48 -10 0 10 3 22 7 25 3 4 15 7 25 7 14 0 19
-6 16 -22z"/>
<path d="M4540 1655 c0 -12 33 -70 43 -77 6 -3 17 -4 25 0 12 4 11 7 -6 13
-23 9 -50 49 -32 49 5 0 10 5 10 10 0 6 -9 10 -20 10 -11 0 -20 -2 -20 -5z"/>
<path d="M5099 1643 c-13 -16 -12 -17 4 -4 9 7 17 15 17 17 0 8 -8 3 -21 -13z"/>
<path d="M2297 1593 c-7 -43 -3 -51 18 -33 17 14 21 35 4 24 -9 -5 -10 1 -5
20 3 14 2 26 -3 26 -4 0 -11 -17 -14 -37z"/>
<path d="M5053 1613 c0 -9 4 -10 14 -2 7 6 13 12 13 14 0 1 -6 2 -13 2 -8 0
-14 -6 -14 -14z"/>
<path d="M2338 1603 c-2 -5 -2 -23 1 -41 l6 -34 29 31 c17 17 24 31 18 31 -7
0 -15 -7 -18 -15 -10 -24 -22 -17 -16 10 4 23 -11 36 -20 18z"/>
<path d="M5005 1594 c-11 -8 -19 -18 -17 -21 1 -4 -5 -8 -13 -9 -28 -4 -66
-34 -59 -46 5 -7 2 -9 -8 -6 -9 4 -15 0 -15 -8 0 -12 3 -12 21 0 12 8 20 20
18 26 -2 7 3 10 12 7 15 -6 96 48 96 64 0 13 -12 11 -35 -7z"/>
<path d="M4411 1571 c-22 -17 -23 -21 -11 -55 15 -46 20 -46 17 0 -2 43 19 58
29 20 3 -14 11 -26 16 -26 6 0 7 8 3 18 -17 40 -17 52 -1 52 8 0 18 -11 22
-25 3 -14 10 -25 15 -25 9 0 1 28 -14 48 -14 17 -48 15 -76 -7z"/>
<path d="M2478 1574 c-4 -3 -4 -12 -2 -19 3 -7 -2 -27 -11 -44 -8 -17 -12 -31
-7 -31 5 0 17 18 27 40 10 22 22 37 28 33 5 -3 8 0 5 8 -5 15 -30 24 -40 13z"/>
<path d="M2413 1543 c9 -2 23 -2 30 0 6 3 -1 5 -18 5 -16 0 -22 -2 -12 -5z"/>
<path d="M4314 1526 c-16 -42 24 -83 52 -54 25 25 11 68 -22 68 -13 0 -27 -6
-30 -14z m51 -16 c7 -23 -1 -40 -20 -40 -16 0 -29 35 -20 50 10 17 33 11 40
-10z"/>
<path d="M2510 1504 c-15 -40 -10 -53 6 -16 10 23 20 32 29 28 8 -3 15 -1 15
4 0 22 -41 9 -50 -16z"/>
<path d="M4247 1508 c-21 -11 -22 -51 -2 -68 18 -15 47 -10 53 10 5 13 3 13
-12 0 -16 -13 -20 -12 -31 4 -18 23 -8 49 16 43 11 -3 19 -2 19 3 0 13 -25 18
-43 8z"/>
<path d="M2559 1486 c-9 -20 -9 -29 1 -41 27 -33 75 -7 68 37 -5 35 -54 38
-69 4z m57 -1 c7 -18 -12 -45 -32 -45 -14 0 -20 41 -7 53 11 12 33 7 39 -8z"/>
<path d="M2647 1470 c-4 -14 -6 -34 -6 -45 0 -15 4 -11 15 13 8 17 21 32 30
32 15 0 14 -10 -3 -57 -3 -7 -1 -13 5 -13 8 0 22 44 22 72 0 6 -11 8 -25 6
-13 -3 -26 0 -28 6 -2 6 -6 -1 -10 -14z"/>
<path d="M2738 1476 c-10 -7 -15 -16 -11 -20 4 -4 6 -23 4 -42 -2 -27 1 -34
16 -34 13 0 15 2 5 9 -18 11 -5 61 17 61 10 0 12 3 5 8 -6 4 -13 12 -15 19 -3
9 -8 8 -21 -1z"/>
<path d="M4149 1473 c-3 -22 4 -59 13 -68 7 -7 8 1 4 27 -5 25 -3 38 6 41 8 3
6 6 -4 6 -10 1 -18 -2 -19 -6z"/>
<path d="M4020 1456 c0 -9 -7 -16 -15 -16 -9 0 -21 -11 -27 -25 -10 -22 -9
-29 10 -47 17 -18 24 -19 36 -9 8 7 21 9 27 5 9 -5 10 -2 5 12 -4 10 -10 34
-13 52 -6 34 -23 55 -23 28z m9 -44 c12 -23 -2 -47 -23 -39 -24 10 -20 57 5
57 5 0 13 -8 18 -18z"/>
<path d="M4074 1446 c-16 -43 20 -86 49 -57 9 9 6 11 -8 9 -11 -2 -21 2 -23 7
-1 6 7 11 18 13 14 2 20 10 18 20 -4 22 -46 28 -54 8z m41 -6 c3 -5 -3 -10
-14 -10 -12 0 -21 5 -21 10 0 6 6 10 14 10 8 0 18 -4 21 -10z"/>
<path d="M2787 1419 c-9 -12 -13 -27 -10 -35 7 -19 43 -28 56 -15 9 9 5 11
-12 9 -13 -2 -26 3 -28 10 -3 8 6 12 27 12 25 0 31 4 28 18 -5 26 -43 27 -61
1z m48 1 c3 -5 -3 -10 -14 -10 -12 0 -21 5 -21 10 0 6 6 10 14 10 8 0 18 -4
21 -10z"/>
<path d="M2870 1411 c0 -9 -3 -27 -5 -41 -4 -20 -2 -18 10 8 8 17 22 32 31 32
13 0 15 -7 10 -37 -5 -28 -4 -34 3 -23 6 8 11 27 11 41 0 22 -5 28 -30 31 -22
3 -30 1 -30 -11z"/>
<path d="M3017 1416 c-3 -8 -14 -12 -25 -10 -23 7 -45 -18 -40 -47 2 -15 13
-25 31 -30 24 -6 28 -4 33 19 3 15 10 39 14 55 9 27 -3 39 -13 13z m-11 -31
c7 -18 -12 -45 -32 -45 -17 0 -18 32 -2 48 16 16 27 15 34 -3z"/>
<path d="M4205 1420 c3 -5 8 -10 11 -10 2 0 4 5 4 10 0 6 -5 10 -11 10 -5 0
-7 -4 -4 -10z"/>
<path d="M3069 1413 c-7 -61 -6 -103 1 -98 6 4 10 19 10 36 0 16 4 29 9 29 5
0 7 9 4 20 -5 19 -22 28 -24 13z"/>
<path d="M3905 1413 c-17 -3 -20 -10 -17 -39 2 -19 9 -37 14 -40 6 -4 8 4 4
23 -5 21 -2 34 8 43 13 10 17 9 22 -6 3 -11 9 -28 14 -39 7 -16 9 -17 9 -3 1
23 -17 68 -26 67 -5 -1 -17 -4 -28 -6z"/>
<path d="M3456 1385 c-9 -9 -16 -23 -16 -30 0 -18 37 -38 52 -29 6 4 9 1 6 -7
-3 -8 -15 -14 -27 -13 -12 0 -20 -4 -18 -10 7 -21 41 -11 57 17 13 24 13 30 0
54 -19 33 -33 38 -54 18z m42 -28 c2 -12 -3 -17 -17 -17 -15 0 -21 6 -21 21 0
25 33 22 38 -4z"/>
<path d="M3775 1391 c-3 -6 -11 -9 -16 -6 -12 8 -11 -46 1 -65 7 -11 10 -6 10
22 0 20 6 38 13 41 6 2 9 7 6 11 -4 4 -10 2 -14 -3z"/>
<path d="M3812 1388 c-6 -6 -12 -20 -12 -29 0 -36 57 -53 68 -19 4 13 3 13
-11 2 -9 -8 -21 -11 -27 -7 -19 11 -10 25 16 25 19 0 25 5 22 18 -4 21 -39 27
-56 10z m43 -8 c4 -6 -5 -10 -20 -10 -15 0 -24 4 -20 10 3 6 12 10 20 10 8 0
17 -4 20 -10z"/>
<path d="M3373 1355 c-13 -19 -23 -39 -23 -44 0 -10 59 -21 64 -12 5 10 -6 91
-13 91 -3 0 -16 -16 -28 -35z m27 -15 c0 -11 -7 -20 -15 -20 -18 0 -19 12 -3
28 16 16 18 15 18 -8z"/>
<path d="M3190 1371 c8 -6 18 -7 22 -5 16 10 7 -14 -12 -31 -26 -24 -25 -32 5
-37 14 -3 25 -1 25 3 0 5 -8 9 -17 9 -13 0 -11 6 10 28 31 32 27 42 -17 42
-23 0 -27 -3 -16 -9z"/>
<path d="M3275 1366 c-11 -8 -16 -23 -13 -41 2 -24 8 -30 26 -29 16 0 22 -5
23 -20 1 -18 2 -18 9 4 15 48 11 87 -10 93 -10 3 -26 0 -35 -7z m33 -33 c-3
-30 -25 -42 -34 -19 -9 22 2 46 21 46 12 0 15 -8 13 -27z"/>
<path d="M3585 1364 c-30 -31 0 -86 39 -71 23 9 21 64 -3 77 -15 7 -24 6 -36
-6z m43 -28 c2 -10 -1 -23 -7 -29 -16 -16 -44 14 -35 37 8 22 38 17 42 -8z"/>
<path d="M3660 1361 c0 -9 3 -27 7 -41 7 -24 8 -23 13 10 6 44 32 47 42 5 6
-29 6 -29 5 5 -2 32 -5 35 -34 36 -24 1 -33 -3 -33 -15z"/>
<path d="M4625 1367 c-11 -9 -14 -16 -7 -21 6 -3 17 0 25 8 8 8 18 12 22 8 5
-4 5 -1 1 6 -9 15 -18 15 -41 -1z"/>
<path d="M3115 1350 c-4 -6 5 -10 20 -10 15 0 24 4 20 10 -3 6 -12 10 -20 10
-8 0 -17 -4 -20 -10z"/>
<path d="M4590 1340 c0 -6 -4 -8 -10 -5 -5 3 -17 2 -26 -3 -28 -16 3 -24 32
-9 17 9 23 17 15 21 -6 4 -11 2 -11 -4z"/>
<path d="M4507 1306 c-8 -8 -18 -12 -22 -8 -5 4 -5 1 -1 -6 6 -9 12 -9 29 -1
29 16 30 16 18 23 -5 3 -16 0 -24 -8z"/>
<path d="M3540 1289 c0 -5 5 -7 10 -4 6 3 10 8 10 11 0 2 -4 4 -10 4 -5 0 -10
-5 -10 -11z"/>
<path d="M3906 1132 c-66 -11 -84 -17 -71 -24 9 -6 33 -7 53 -3 95 17 132 27
132 36 0 11 2 11 -114 -9z"/>
<path d="M2898 1123 c6 -2 18 -2 25 0 6 3 1 5 -13 5 -14 0 -19 -2 -12 -5z"/>
<path d="M2945 1121 c6 -6 33 -14 60 -17 29 -4 47 -3 42 2 -5 5 -18 10 -30 11
-12 1 -35 5 -52 9 -22 5 -27 3 -20 -5z"/>
<path d="M3065 1100 c-3 -5 3 -10 15 -10 12 0 18 5 15 10 -3 6 -10 10 -15 10
-5 0 -12 -4 -15 -10z"/>
<path d="M3785 1100 c-3 -5 1 -10 10 -10 9 0 13 5 10 10 -3 6 -8 10 -10 10 -2
0 -7 -4 -10 -10z"/>
</g>
</svg>
